<svg width="220" height="21" viewBox="0 0 220 21" fill="none" xmlns="http://www.w3.org/2000/svg">
<path d="M3.39781 17.0866V16.1906L6.98181 15.1346V16.0466L3.39781 17.0866ZM1.77106 20.6386C1.54706 19.8173 1.35506 19.0119 1.19506 18.2226C1.03506 17.4439 0.912396 16.7453 0.827063 16.1266C0.741729 15.5079 0.699063 15.0493 0.699063 14.7506C0.699063 13.9613 0.827063 13.2413 1.08306 12.5906C1.33906 11.9399 1.66973 11.3693 2.07506 10.8786C2.4804 10.3773 2.91773 9.95592 3.38706 9.61459C3.8564 9.26259 4.30973 9.00125 4.74706 8.83059C5.19506 8.64925 5.57373 8.55859 5.88306 8.55859C6.14973 8.55859 6.3844 8.61725 6.58706 8.73459C6.78973 8.85192 6.98706 9.08125 7.17906 9.42259C7.37106 9.76392 7.57373 10.2653 7.78706 10.9266C7.98973 11.5346 8.18173 11.9986 8.36306 12.3186C8.5444 12.6279 8.74173 12.8413 8.95506 12.9586C9.1684 13.0653 9.41373 13.1186 9.69106 13.1186C9.91506 13.1186 10.0751 13.1826 10.1711 13.3106C10.2777 13.4279 10.3311 13.5719 10.3311 13.7426C10.3311 13.9133 10.2564 14.0733 10.1071 14.2226C9.95773 14.3613 9.76573 14.4306 9.53106 14.4306C9.11506 14.4306 8.75773 14.3559 8.45906 14.2066C8.17106 14.0573 7.9204 13.8546 7.70706 13.5986L8.07506 13.2946C7.94706 13.6039 7.78173 13.8599 7.57906 14.0626C7.38706 14.2546 7.1684 14.3986 6.92306 14.4946C6.6884 14.5906 6.43773 14.6386 6.17106 14.6386C5.86173 14.6386 5.54173 14.5799 5.21106 14.4626C4.8804 14.3559 4.55506 14.1959 4.23506 13.9826C3.91506 13.7586 3.61106 13.4866 3.32306 13.1666C3.04573 12.8466 2.8004 12.4839 2.58706 12.0786L2.74706 12.1106C2.4484 12.5266 2.25106 12.9799 2.15506 13.4706C2.05906 13.9506 2.01106 14.3773 2.01106 14.7506C2.01106 15.0493 2.04306 15.4279 2.10706 15.8866C2.17106 16.3559 2.25106 16.8519 2.34706 17.3746C2.45373 17.8973 2.56573 18.4146 2.68306 18.9266C2.81106 19.4493 2.9284 19.9186 3.03506 20.3346L1.77106 20.6386ZM6.29906 13.3266C6.49106 13.3266 6.64573 13.2893 6.76306 13.2146C6.89106 13.1399 6.9764 13.0279 7.01906 12.8786C7.06173 12.7293 7.04573 12.5426 6.97106 12.3186C6.84306 11.9346 6.72573 11.5986 6.61906 11.3106C6.5124 11.0119 6.40573 10.7666 6.29906 10.5746C6.20306 10.3719 6.10173 10.2226 5.99506 10.1266C5.8884 10.0306 5.7764 9.98259 5.65906 9.98259C5.54173 9.98259 5.3924 10.0093 5.21106 10.0626C5.0404 10.1159 4.85373 10.1959 4.65106 10.3026C4.45906 10.4093 4.26173 10.5426 4.05906 10.7026C3.8564 10.8626 3.6644 11.0493 3.48306 11.2626L3.49906 11.1346C3.73373 11.6253 4.0164 12.0359 4.34706 12.3666C4.6884 12.6973 5.02973 12.9426 5.37106 13.1026C5.72306 13.2519 6.0324 13.3266 6.29906 13.3266ZM12.5048 6.46259C12.0461 6.46259 11.6995 6.32392 11.4648 6.04659C11.2408 5.76925 11.1288 5.44392 11.1288 5.07059C11.1288 4.76125 11.1875 4.48392 11.3048 4.23859C11.4328 3.98259 11.6088 3.77992 11.8328 3.63059C12.0568 3.47059 12.3075 3.39058 12.5848 3.39058C12.8408 3.39058 13.0701 3.46525 13.2728 3.61458C13.4755 3.76392 13.6355 3.96125 13.7528 4.20658C13.8701 4.45192 13.9288 4.71325 13.9288 4.99059C13.9288 5.40659 13.7955 5.75859 13.5288 6.04659C13.2621 6.32392 12.9208 6.46259 12.5048 6.46259ZM12.4888 5.63059C12.6701 5.63059 12.8248 5.57192 12.9528 5.45459C13.0915 5.33725 13.1608 5.18259 13.1608 4.99059C13.1608 4.78792 13.0915 4.62259 12.9528 4.49459C12.8141 4.35592 12.6648 4.28659 12.5048 4.28659C12.3021 4.28659 12.1421 4.35592 12.0248 4.49459C11.9181 4.63325 11.8648 4.79325 11.8648 4.97459C11.8648 5.16659 11.9235 5.32659 12.0408 5.45459C12.1581 5.57192 12.3075 5.63059 12.4888 5.63059ZM9.52344 14.4306L9.68344 13.1186C10.2168 13.1186 10.6328 13.0813 10.9314 13.0066C11.2301 12.9213 11.4541 12.7666 11.6034 12.5426C11.7634 12.3079 11.8914 11.9719 11.9874 11.5346C12.0834 11.0973 12.2008 10.5266 12.3394 9.82259L13.5874 10.0626C13.5448 10.2546 13.4968 10.4679 13.4434 10.7026C13.3901 10.9373 13.3421 11.1719 13.2994 11.4066C13.2674 11.6306 13.2514 11.8279 13.2514 11.9986C13.2514 12.1586 13.2621 12.3079 13.2834 12.4466C13.3048 12.5853 13.3848 12.7026 13.5234 12.7986C13.6621 12.8946 13.8968 12.9746 14.2274 13.0386C14.5581 13.0919 15.0328 13.1186 15.6514 13.1186C15.8754 13.1186 16.0354 13.1826 16.1314 13.3106C16.2381 13.4279 16.2914 13.5719 16.2914 13.7426C16.2914 13.9133 16.2168 14.0733 16.0674 14.2226C15.9181 14.3613 15.7261 14.4306 15.4914 14.4306C14.8408 14.4306 14.3234 14.3986 13.9394 14.3346C13.5554 14.2599 13.2621 14.1533 13.0594 14.0146C12.8674 13.8759 12.7288 13.7053 12.6434 13.5026C12.5688 13.2893 12.5101 13.0439 12.4674 12.7666L12.9474 12.7986C12.7768 13.1399 12.5901 13.4173 12.3874 13.6306C12.1954 13.8439 11.9714 14.0093 11.7154 14.1266C11.4594 14.2439 11.1501 14.3239 10.7874 14.3666C10.4354 14.4093 10.0141 14.4306 9.52344 14.4306ZM13.5554 17.4546C13.3314 17.4546 13.1394 17.3746 12.9794 17.2146C12.8301 17.0653 12.7554 16.8839 12.7554 16.6706C12.7554 16.4573 12.8301 16.2706 12.9794 16.1106C13.1394 15.9506 13.3314 15.8706 13.5554 15.8706C13.7688 15.8706 13.9501 15.9506 14.0994 16.1106C14.2594 16.2706 14.3394 16.4573 14.3394 16.6706C14.3394 16.8839 14.2594 17.0653 14.0994 17.2146C13.9501 17.3746 13.7688 17.4546 13.5554 17.4546ZM11.3634 17.4546C11.1394 17.4546 10.9474 17.3746 10.7874 17.2146C10.6381 17.0653 10.5634 16.8839 10.5634 16.6706C10.5634 16.4573 10.6381 16.2706 10.7874 16.1106C10.9474 15.9506 11.1394 15.8706 11.3634 15.8706C11.5768 15.8706 11.7581 15.9506 11.9074 16.1106C12.0674 16.2706 12.1474 16.4573 12.1474 16.6706C12.1474 16.8839 12.0674 17.0653 11.9074 17.2146C11.7581 17.3746 11.5768 17.4546 11.3634 17.4546ZM18.3197 17.0866V16.1906L21.9037 15.1346V16.0466L18.3197 17.0866ZM15.4922 14.4306L15.6362 13.1186C16.1909 13.1186 16.7349 13.0759 17.2682 12.9906C17.8015 12.9053 18.3242 12.7826 18.8362 12.6226C19.3482 12.4626 19.8389 12.2706 20.3082 12.0466C20.7882 11.8119 21.2415 11.5453 21.6682 11.2466C21.3909 11.0013 21.0709 10.7879 20.7082 10.6066C20.3455 10.4253 19.9455 10.2866 19.5082 10.1906C19.0815 10.0839 18.6282 10.0306 18.1482 10.0306C17.9775 10.0306 17.8175 10.0359 17.6682 10.0466C17.5189 10.0573 17.3695 10.0786 17.2202 10.1106C17.0709 10.1319 16.9002 10.1639 16.7082 10.2066L16.4522 8.99059C16.7402 8.90525 17.0282 8.84125 17.3162 8.79859C17.6042 8.74525 17.8815 8.71859 18.1482 8.71859C18.7029 8.71859 19.2042 8.78792 19.6522 8.92659C20.1002 9.05459 20.5055 9.21459 20.8682 9.40659C21.2415 9.59859 21.5882 9.79059 21.9082 9.98259C22.2389 10.1746 22.5589 10.3399 22.8682 10.4786C23.1775 10.6066 23.4975 10.6706 23.8282 10.6706H24.1642L24.2762 11.8226C23.8175 11.8226 23.3962 11.8866 23.0122 12.0146C22.6282 12.1426 22.2495 12.3079 21.8762 12.5106C21.5135 12.7026 21.1295 12.9106 20.7242 13.1346C20.3189 13.3479 19.8709 13.5559 19.3802 13.7586C18.8895 13.9506 18.3242 14.1106 17.6842 14.2386C17.0549 14.3666 16.3242 14.4306 15.4922 14.4306ZM24.6478 2.71859V1.82259L28.2318 0.766585V1.67859L24.6478 2.71859ZM25.6048 5.89459C25.1781 5.89459 24.8955 5.75592 24.7568 5.47859C24.6181 5.19059 24.5488 4.88659 24.5488 4.56659C24.5488 4.44925 24.5541 4.32659 24.5648 4.19859C24.5861 4.05992 24.6128 3.90525 24.6448 3.73459L25.4448 3.51059C25.4128 3.69192 25.3861 3.86259 25.3648 4.02259C25.3541 4.17192 25.3488 4.30525 25.3488 4.42259C25.3488 4.62525 25.3808 4.77459 25.4448 4.87059C25.5088 4.96659 25.6101 5.01459 25.7488 5.01459C25.9088 5.01459 26.0421 4.93459 26.1488 4.77459C26.2555 4.60392 26.3141 4.26792 26.3248 3.76659V3.28659L27.0928 2.99859V3.97459C27.0928 4.12392 27.1195 4.25725 27.1728 4.37459C27.2368 4.48125 27.3648 4.53458 27.5568 4.53458C27.7488 4.53458 27.8768 4.47592 27.9408 4.35859C28.0048 4.24125 28.0368 4.09192 28.0368 3.91059C28.0368 3.72925 28.0155 3.54792 27.9728 3.36659C27.9301 3.17459 27.8715 2.98792 27.7968 2.80659L28.5168 2.58259C28.6235 2.78525 28.7088 3.01992 28.7728 3.28659C28.8475 3.54259 28.8848 3.77725 28.8848 3.99059C28.8848 4.34259 28.7835 4.66259 28.5808 4.95059C28.3888 5.22792 28.0848 5.36659 27.6688 5.36659C27.3381 5.36659 27.0661 5.28125 26.8528 5.11059C26.6501 4.92925 26.5488 4.71592 26.5488 4.47059L26.9168 4.61459C26.9168 4.97725 26.7888 5.28125 26.5328 5.52659C26.2875 5.77192 25.9781 5.89459 25.6048 5.89459ZM24.3374 18.0626L23.8734 16.8466C24.6521 16.5906 25.2974 16.2973 25.8094 15.9666C26.3321 15.6359 26.7428 15.2839 27.0414 14.9106C27.3508 14.5373 27.5694 14.1586 27.6974 13.7746C27.8254 13.3799 27.8894 13.0013 27.8894 12.6386C27.8894 12.1159 27.7721 11.5879 27.5374 11.0546C27.3134 10.5106 27.0628 9.99859 26.7854 9.51859L27.9534 8.92659C28.1561 9.29992 28.3321 9.66792 28.4814 10.0306C28.6414 10.3933 28.7801 10.7346 28.8974 11.0546C29.0254 11.3746 29.1268 11.6679 29.2014 11.9346C29.3508 12.3933 29.5428 12.7079 29.7774 12.8786C30.0228 13.0386 30.3534 13.1186 30.7694 13.1186C30.9934 13.1186 31.1534 13.1826 31.2494 13.3106C31.3561 13.4279 31.4094 13.5719 31.4094 13.7426C31.4094 13.9133 31.3348 14.0733 31.1854 14.2226C31.0361 14.3613 30.8441 14.4306 30.6094 14.4306C30.1401 14.4306 29.7561 14.3506 29.4574 14.1906C29.1694 14.0199 28.9508 13.8013 28.8014 13.5346C28.6521 13.2573 28.5508 12.9693 28.4974 12.6706L29.0094 12.9586C29.0094 13.6626 28.8494 14.3026 28.5294 14.8786C28.2201 15.4653 27.8201 15.9719 27.3294 16.3986C26.8388 16.8359 26.3268 17.1933 25.7934 17.4706C25.2601 17.7479 24.7748 17.9453 24.3374 18.0626ZM30.6172 14.4306L30.7612 13.1186C31.3692 13.1186 31.7959 13.0599 32.0412 12.9426C32.2865 12.8253 32.4252 12.6173 32.4572 12.3186C32.4999 12.0199 32.5105 11.6039 32.4892 11.0706L32.1852 2.92659H33.4812L33.8012 10.9266C33.8225 11.4919 33.8012 11.9933 33.7372 12.4306C33.6839 12.8679 33.5452 13.2359 33.3212 13.5346C33.1079 13.8333 32.7825 14.0573 32.3452 14.2066C31.9185 14.3559 31.3425 14.4306 30.6172 14.4306ZM36.2454 14.3506L35.9254 2.92659H37.2214L37.5414 14.3506H36.2454ZM46.2259 20.0866V19.1906L49.8099 18.1346V19.0466L46.2259 20.0866ZM43.3316 14.3666C43.3316 13.9826 43.3849 13.5559 43.4916 13.0866C43.5982 12.6173 43.7689 12.0999 44.0036 11.5346L45.1556 11.9826C44.9849 12.4306 44.8569 12.8413 44.7716 13.2146C44.6862 13.5879 44.6436 13.9346 44.6436 14.2546C44.6436 14.8413 44.7876 15.3159 45.0756 15.6786C45.3742 16.0519 45.7689 16.3239 46.2596 16.4946C46.7609 16.6653 47.3102 16.7506 47.9076 16.7506C48.6329 16.7506 49.2409 16.6706 49.7316 16.5106C50.2222 16.3613 50.6116 16.1533 50.8996 15.8866C51.1876 15.6199 51.3902 15.3159 51.5076 14.9746C51.6356 14.6439 51.6996 14.2973 51.6996 13.9346C51.6996 13.4653 51.6622 13.0226 51.5876 12.6066C51.5236 12.1906 51.4329 11.7853 51.3156 11.3906C51.2089 10.9853 51.0916 10.5746 50.9636 10.1586L52.2596 9.80659C52.3769 10.2119 52.4676 10.5426 52.5316 10.7986C52.5956 11.0439 52.6436 11.2413 52.6756 11.3906C52.7182 11.5399 52.7556 11.6733 52.7876 11.7906C52.9049 12.1853 53.0596 12.4786 53.2516 12.6706C53.4436 12.8519 53.6622 12.9746 53.9076 13.0386C54.1636 13.0919 54.4249 13.1186 54.6916 13.1186C54.9156 13.1186 55.0756 13.1826 55.1716 13.3106C55.2782 13.4279 55.3316 13.5719 55.3316 13.7426C55.3316 13.9133 55.2569 14.0733 55.1076 14.2226C54.9582 14.3613 54.7662 14.4306 54.5316 14.4306C54.0836 14.4306 53.7102 14.3559 53.4116 14.2066C53.1129 14.0466 52.8782 13.8493 52.7076 13.6146C52.5476 13.3799 52.4409 13.1346 52.3876 12.8786L53.0436 13.6946C53.0116 14.2386 52.9049 14.7666 52.7236 15.2786C52.5529 15.8013 52.2756 16.2706 51.8916 16.6866C51.5076 17.1133 50.9849 17.4493 50.3236 17.6946C49.6729 17.9399 48.8516 18.0626 47.8596 18.0626C47.2516 18.0626 46.6756 17.9879 46.1316 17.8386C45.5876 17.6893 45.1022 17.4599 44.6756 17.1506C44.2596 16.8519 43.9289 16.4679 43.6836 15.9986C43.4489 15.5399 43.3316 14.9959 43.3316 14.3666ZM48.1636 7.98259C47.9396 7.98259 47.7476 7.90792 47.5876 7.75859C47.4382 7.59859 47.3636 7.41192 47.3636 7.19859C47.3636 6.98525 47.4382 6.79859 47.5876 6.63859C47.7476 6.47859 47.9396 6.39859 48.1636 6.39859C48.3769 6.39859 48.5582 6.47859 48.7076 6.63859C48.8676 6.79859 48.9476 6.98525 48.9476 7.19859C48.9476 7.41192 48.8676 7.59859 48.7076 7.75859C48.5582 7.90792 48.3769 7.98259 48.1636 7.98259ZM57.3666 5.71859V4.82259L60.9506 3.76659V4.67859L57.3666 5.71859ZM54.5391 14.4306L54.6991 13.1186C54.9977 13.1186 55.2324 13.0546 55.4031 12.9266C55.5844 12.7986 55.7551 12.5853 55.9151 12.2866C56.0857 11.9879 56.2991 11.5879 56.5551 11.0866C56.8111 10.5746 57.0671 10.1586 57.3231 9.83859C57.5897 9.50792 57.8457 9.25192 58.0911 9.07059C58.3471 8.87859 58.5871 8.74525 58.8111 8.67059C59.0351 8.59592 59.2431 8.55859 59.4351 8.55859C59.7871 8.55859 60.1017 8.63859 60.3791 8.79859C60.6564 8.94792 60.9177 9.20925 61.1631 9.58259C61.4084 9.94525 61.6591 10.4466 61.9151 11.0866C62.1604 11.6733 62.3791 12.1159 62.5711 12.4146C62.7737 12.7026 62.9817 12.8946 63.1951 12.9906C63.4191 13.0759 63.6697 13.1186 63.9471 13.1186C64.1711 13.1186 64.3311 13.1826 64.4271 13.3106C64.5337 13.4279 64.5871 13.5719 64.5871 13.7426C64.5871 13.9133 64.5124 14.0733 64.3631 14.2226C64.2137 14.3613 64.0217 14.4306 63.7871 14.4306C63.3711 14.4306 62.9871 14.3613 62.6351 14.2226C62.2937 14.0839 62.0057 13.8653 61.7711 13.5666L61.9951 13.2306C61.8777 13.5613 61.7177 13.8333 61.5151 14.0466C61.3231 14.2493 61.1044 14.3986 60.8591 14.4946C60.6137 14.6013 60.3524 14.6546 60.0751 14.6546C59.7231 14.6546 59.3604 14.5799 58.9871 14.4306C58.6244 14.2813 58.2724 14.0679 57.9311 13.7906C57.5897 13.5133 57.2911 13.1879 57.0351 12.8146C56.7577 13.3053 56.4911 13.6679 56.2351 13.9026C55.9897 14.1266 55.7337 14.2706 55.4671 14.3346C55.2004 14.3986 54.8911 14.4306 54.5391 14.4306ZM57.6431 11.5986C57.8244 11.8973 58.0164 12.1586 58.2191 12.3826C58.4324 12.6066 58.6457 12.7933 58.8591 12.9426C59.0724 13.0813 59.2804 13.1879 59.4831 13.2626C59.6964 13.3266 59.8884 13.3586 60.0591 13.3586C60.4324 13.3586 60.7044 13.2253 60.8751 12.9586C61.0564 12.6919 61.0511 12.3186 60.8591 11.8386C60.7631 11.5933 60.6617 11.3533 60.5551 11.1186C60.4591 10.8839 60.3524 10.6706 60.2351 10.4786C60.1177 10.2759 59.9844 10.1213 59.8351 10.0146C59.6857 9.89725 59.5204 9.83859 59.3391 9.83859C59.1791 9.83859 59.0084 9.89192 58.8271 9.99859C58.6564 10.1053 58.4697 10.2866 58.2671 10.5426C58.0751 10.7986 57.8671 11.1506 57.6431 11.5986ZM66.2861 5.46259C65.8274 5.46259 65.4807 5.32392 65.2461 5.04659C65.0221 4.76925 64.9101 4.44392 64.9101 4.07059C64.9101 3.76125 64.9687 3.48392 65.0861 3.23859C65.2141 2.98259 65.3901 2.77992 65.6141 2.63059C65.8381 2.47059 66.0887 2.39058 66.3661 2.39058C66.6221 2.39058 66.8514 2.46525 67.0541 2.61458C67.2567 2.76392 67.4167 2.96125 67.5341 3.20658C67.6514 3.45192 67.7101 3.71325 67.7101 3.99059C67.7101 4.40659 67.5767 4.75859 67.3101 5.04659C67.0434 5.32392 66.7021 5.46259 66.2861 5.46259ZM66.2701 4.63059C66.4514 4.63059 66.6061 4.57192 66.7341 4.45459C66.8727 4.33725 66.9421 4.18259 66.9421 3.99059C66.9421 3.78792 66.8727 3.62259 66.7341 3.49459C66.5954 3.35592 66.4461 3.28659 66.2861 3.28659C66.0834 3.28659 65.9234 3.35592 65.8061 3.49459C65.6994 3.63325 65.6461 3.79325 65.6461 3.97459C65.6461 4.16659 65.7047 4.32659 65.8221 4.45459C65.9394 4.57192 66.0887 4.63059 66.2701 4.63059ZM63.7891 14.4306L63.9331 13.1186C64.4877 13.1186 65.0317 13.0759 65.5651 12.9906C66.0984 12.9053 66.6211 12.7826 67.1331 12.6226C67.6451 12.4626 68.1357 12.2706 68.6051 12.0466C69.0851 11.8119 69.5384 11.5453 69.9651 11.2466C69.6877 11.0013 69.3677 10.7879 69.0051 10.6066C68.6424 10.4253 68.2424 10.2866 67.8051 10.1906C67.3784 10.0839 66.9251 10.0306 66.4451 10.0306C66.2744 10.0306 66.1144 10.0359 65.9651 10.0466C65.8157 10.0573 65.6664 10.0786 65.5171 10.1106C65.3677 10.1319 65.1971 10.1639 65.0051 10.2066L64.7491 8.99059C65.0371 8.90525 65.3251 8.84125 65.6131 8.79859C65.9011 8.74525 66.1784 8.71859 66.4451 8.71859C66.9997 8.71859 67.5011 8.78792 67.9491 8.92659C68.3971 9.05459 68.8024 9.21459 69.1651 9.40659C69.5384 9.59859 69.8851 9.79059 70.2051 9.98259C70.5357 10.1746 70.8557 10.3399 71.1651 10.4786C71.4744 10.6066 71.7944 10.6706 72.1251 10.6706H72.4611L72.5731 11.8226C72.1144 11.8226 71.6931 11.8866 71.3091 12.0146C70.9251 12.1426 70.5464 12.3079 70.1731 12.5106C69.8104 12.7026 69.4264 12.9106 69.0211 13.1346C68.6157 13.3479 68.1677 13.5559 67.6771 13.7586C67.1864 13.9506 66.6211 14.1106 65.9811 14.2386C65.3517 14.3666 64.6211 14.4306 63.7891 14.4306ZM72.9447 2.71859V1.82259L76.5287 0.766585V1.67859L72.9447 2.71859ZM73.9017 5.89459C73.475 5.89459 73.1924 5.75592 73.0537 5.47859C72.915 5.19059 72.8457 4.88659 72.8457 4.56659C72.8457 4.44925 72.851 4.32659 72.8617 4.19859C72.883 4.05992 72.9097 3.90525 72.9417 3.73459L73.7417 3.51059C73.7097 3.69192 73.683 3.86259 73.6617 4.02259C73.651 4.17192 73.6457 4.30525 73.6457 4.42259C73.6457 4.62525 73.6777 4.77459 73.7417 4.87059C73.8057 4.96659 73.907 5.01459 74.0457 5.01459C74.2057 5.01459 74.339 4.93459 74.4457 4.77459C74.5524 4.60392 74.611 4.26792 74.6217 3.76659V3.28659L75.3897 2.99859V3.97459C75.3897 4.12392 75.4164 4.25725 75.4697 4.37459C75.5337 4.48125 75.6617 4.53458 75.8537 4.53458C76.0457 4.53458 76.1737 4.47592 76.2377 4.35859C76.3017 4.24125 76.3337 4.09192 76.3337 3.91059C76.3337 3.72925 76.3124 3.54792 76.2697 3.36659C76.227 3.17459 76.1684 2.98792 76.0937 2.80659L76.8137 2.58259C76.9204 2.78525 77.0057 3.01992 77.0697 3.28659C77.1444 3.54259 77.1817 3.77725 77.1817 3.99059C77.1817 4.34259 77.0804 4.66259 76.8777 4.95059C76.6857 5.22792 76.3817 5.36659 75.9657 5.36659C75.635 5.36659 75.363 5.28125 75.1497 5.11059C74.947 4.92925 74.8457 4.71592 74.8457 4.47059L75.2137 4.61459C75.2137 4.97725 75.0857 5.28125 74.8297 5.52659C74.5844 5.77192 74.275 5.89459 73.9017 5.89459ZM72.6343 18.0626L72.1703 16.8466C72.949 16.5906 73.5943 16.2973 74.1063 15.9666C74.629 15.6359 75.0396 15.2839 75.3383 14.9106C75.6476 14.5373 75.8663 14.1586 75.9943 13.7746C76.1223 13.3799 76.1863 13.0013 76.1863 12.6386C76.1863 12.1159 76.069 11.5879 75.8343 11.0546C75.6103 10.5106 75.3596 9.99859 75.0823 9.51859L76.2503 8.92659C76.453 9.29992 76.629 9.66792 76.7783 10.0306C76.9383 10.3933 77.077 10.7346 77.1943 11.0546C77.3223 11.3746 77.4236 11.6679 77.4983 11.9346C77.6476 12.3933 77.8396 12.7079 78.0743 12.8786C78.3196 13.0386 78.6503 13.1186 79.0663 13.1186C79.2903 13.1186 79.4503 13.1826 79.5463 13.3106C79.653 13.4279 79.7063 13.5719 79.7063 13.7426C79.7063 13.9133 79.6316 14.0733 79.4823 14.2226C79.333 14.3613 79.141 14.4306 78.9063 14.4306C78.437 14.4306 78.053 14.3506 77.7543 14.1906C77.4663 14.0199 77.2476 13.8013 77.0983 13.5346C76.949 13.2573 76.8476 12.9693 76.7943 12.6706L77.3063 12.9586C77.3063 13.6626 77.1463 14.3026 76.8263 14.8786C76.517 15.4653 76.117 15.9719 75.6263 16.3986C75.1356 16.8359 74.6236 17.1933 74.0903 17.4706C73.557 17.7479 73.0716 17.9453 72.6343 18.0626ZM78.9141 14.4306L79.0581 13.1186C79.6661 13.1186 80.0927 13.0599 80.3381 12.9426C80.5834 12.8253 80.7221 12.6173 80.7541 12.3186C80.7967 12.0199 80.8074 11.6039 80.7861 11.0706L80.4821 2.92659H81.7781L82.0981 10.9266C82.1194 11.4919 82.0981 11.9933 82.0341 12.4306C81.9807 12.8679 81.8421 13.2359 81.6181 13.5346C81.4047 13.8333 81.0794 14.0573 80.6421 14.2066C80.2154 14.3559 79.6394 14.4306 78.9141 14.4306ZM84.5423 14.3506L84.2223 2.92659H85.5183L85.8383 14.3506H84.5423ZM93.5697 17.0866V16.1906L97.1537 15.1346V16.0466L93.5697 17.0866ZM98.9244 14.4306C98.3484 14.4306 97.8364 14.3506 97.3884 14.1906C96.9511 14.0199 96.5991 13.7373 96.3324 13.3426C96.0764 12.9373 95.9324 12.3773 95.9004 11.6626L95.6444 6.09459H96.9404L97.1964 11.3746C97.2284 11.8759 97.3191 12.2546 97.4684 12.5106C97.6178 12.7559 97.8258 12.9213 98.0924 13.0066C98.3698 13.0813 98.7004 13.1186 99.0844 13.1186C99.3084 13.1186 99.4684 13.1826 99.5644 13.3106C99.6711 13.4279 99.7244 13.5719 99.7244 13.7426C99.7244 13.9133 99.6498 14.0733 99.5004 14.2226C99.3511 14.3613 99.1591 14.4306 98.9244 14.4306ZM96.5084 12.6706C95.9004 12.8626 95.3084 12.9586 94.7324 12.9586C94.1564 12.9586 93.6338 12.8733 93.1644 12.7026C92.6951 12.5319 92.3218 12.2866 92.0444 11.9666C91.7671 11.6359 91.6284 11.2413 91.6284 10.7826C91.6284 10.3346 91.7404 9.91325 91.9644 9.51859C92.1991 9.12392 92.5138 8.77192 92.9084 8.46259C93.3138 8.15325 93.7778 7.89725 94.3004 7.69459C94.8338 7.48125 95.3991 7.33725 95.9964 7.26259L96.2204 8.60659C95.6871 8.62792 95.2124 8.70259 94.7964 8.83059C94.3911 8.94792 94.0444 9.10259 93.7564 9.29459C93.4791 9.48659 93.2658 9.69459 93.1164 9.91859C92.9671 10.1426 92.8924 10.3613 92.8924 10.5746C92.8924 10.8093 92.9778 11.0013 93.1484 11.1506C93.3191 11.2999 93.5378 11.4173 93.8044 11.5026C94.0711 11.5773 94.3644 11.6253 94.6844 11.6466C95.0044 11.6573 95.3138 11.6466 95.6124 11.6146C95.9111 11.5719 96.1671 11.5133 96.3804 11.4386L96.5084 12.6706ZM98.9297 14.4306L99.0737 13.1186C99.6817 13.1186 100.108 13.0599 100.354 12.9426C100.599 12.8253 100.738 12.6173 100.77 12.3186C100.812 12.0199 100.823 11.6039 100.802 11.0706L100.53 2.92659H101.858L102.114 11.0386C102.135 11.5826 102.22 12.0093 102.37 12.3186C102.53 12.6173 102.743 12.8253 103.01 12.9426C103.276 13.0599 103.57 13.1186 103.89 13.1186C104.114 13.1186 104.274 13.1826 104.37 13.3106C104.476 13.4279 104.53 13.5719 104.53 13.7426C104.53 13.9133 104.455 14.0733 104.306 14.2226C104.156 14.3613 103.964 14.4306 103.73 14.4306C103.282 14.4306 102.908 14.3613 102.61 14.2226C102.322 14.0733 102.092 13.8866 101.922 13.6626C101.762 13.4279 101.655 13.1826 101.602 12.9266L101.938 12.9586C101.831 13.2786 101.655 13.5506 101.41 13.7746C101.175 13.9879 100.855 14.1533 100.45 14.2706C100.044 14.3773 99.5377 14.4306 98.9297 14.4306ZM103.727 14.4306L103.871 13.1186C104.479 13.1186 104.905 13.0599 105.151 12.9426C105.396 12.8253 105.535 12.6173 105.567 12.3186C105.609 12.0199 105.62 11.6039 105.599 11.0706L105.295 2.92659H106.591L106.911 10.9266C106.932 11.4919 106.911 11.9933 106.847 12.4306C106.793 12.8679 106.655 13.2359 106.431 13.5346C106.217 13.8333 105.892 14.0573 105.455 14.2066C105.028 14.3559 104.452 14.4306 103.727 14.4306ZM109.355 14.3506L109.035 2.92659H110.331L110.651 14.3506H109.355ZM118.82 17.0866V16.1906L122.404 15.1346V16.0466L118.82 17.0866ZM117.193 20.6386C116.969 19.8173 116.777 19.0119 116.617 18.2226C116.457 17.4439 116.334 16.7453 116.249 16.1266C116.164 15.5079 116.121 15.0493 116.121 14.7506C116.121 13.9613 116.249 13.2413 116.505 12.5906C116.761 11.9399 117.092 11.3693 117.497 10.8786C117.902 10.3773 118.34 9.95592 118.809 9.61459C119.278 9.26259 119.732 9.00125 120.169 8.83059C120.617 8.64925 120.996 8.55859 121.305 8.55859C121.572 8.55859 121.806 8.61725 122.009 8.73459C122.212 8.85192 122.409 9.08125 122.601 9.42259C122.793 9.76392 122.996 10.2653 123.209 10.9266C123.412 11.5346 123.604 11.9986 123.785 12.3186C123.966 12.6279 124.164 12.8413 124.377 12.9586C124.59 13.0653 124.836 13.1186 125.113 13.1186C125.337 13.1186 125.497 13.1826 125.593 13.3106C125.7 13.4279 125.753 13.5719 125.753 13.7426C125.753 13.9133 125.678 14.0733 125.529 14.2226C125.38 14.3613 125.188 14.4306 124.953 14.4306C124.537 14.4306 124.18 14.3559 123.881 14.2066C123.593 14.0573 123.342 13.8546 123.129 13.5986L123.497 13.2946C123.369 13.6039 123.204 13.8599 123.001 14.0626C122.809 14.2546 122.59 14.3986 122.345 14.4946C122.11 14.5906 121.86 14.6386 121.593 14.6386C121.284 14.6386 120.964 14.5799 120.633 14.4626C120.302 14.3559 119.977 14.1959 119.657 13.9826C119.337 13.7586 119.033 13.4866 118.745 13.1666C118.468 12.8466 118.222 12.4839 118.009 12.0786L118.169 12.1106C117.87 12.5266 117.673 12.9799 117.577 13.4706C117.481 13.9506 117.433 14.3773 117.433 14.7506C117.433 15.0493 117.465 15.4279 117.529 15.8866C117.593 16.3559 117.673 16.8519 117.769 17.3746C117.876 17.8973 117.988 18.4146 118.105 18.9266C118.233 19.4493 118.35 19.9186 118.457 20.3346L117.193 20.6386ZM121.721 13.3266C121.913 13.3266 122.068 13.2893 122.185 13.2146C122.313 13.1399 122.398 13.0279 122.441 12.8786C122.484 12.7293 122.468 12.5426 122.393 12.3186C122.265 11.9346 122.148 11.5986 122.041 11.3106C121.934 11.0119 121.828 10.7666 121.721 10.5746C121.625 10.3719 121.524 10.2226 121.417 10.1266C121.31 10.0306 121.198 9.98259 121.081 9.98259C120.964 9.98259 120.814 10.0093 120.633 10.0626C120.462 10.1159 120.276 10.1959 120.073 10.3026C119.881 10.4093 119.684 10.5426 119.481 10.7026C119.278 10.8626 119.086 11.0493 118.905 11.2626L118.921 11.1346C119.156 11.6253 119.438 12.0359 119.769 12.3666C120.11 12.6973 120.452 12.9426 120.793 13.1026C121.145 13.2519 121.454 13.3266 121.721 13.3266ZM124.945 14.4306L125.105 13.1186H129.425C129.649 13.1186 129.809 13.1826 129.905 13.3106C130.012 13.4279 130.065 13.5719 130.065 13.7426C130.065 13.9133 129.991 14.0733 129.841 14.2226C129.692 14.3613 129.5 14.4306 129.265 14.4306H124.945ZM129.258 14.4306L129.418 13.1186H133.738C133.962 13.1186 134.122 13.1826 134.218 13.3106C134.324 13.4279 134.378 13.5719 134.378 13.7426C134.378 13.9133 134.303 14.0733 134.154 14.2226C134.004 14.3613 133.812 14.4306 133.578 14.4306H129.258ZM133.57 14.4306L133.73 13.1186H138.05C138.274 13.1186 138.434 13.1826 138.53 13.3106C138.637 13.4279 138.69 13.5719 138.69 13.7426C138.69 13.9133 138.616 14.0733 138.466 14.2226C138.317 14.3613 138.125 14.4306 137.89 14.4306H133.57ZM137.883 14.4306L138.043 13.1186H142.363C142.587 13.1186 142.747 13.1826 142.843 13.3106C142.949 13.4279 143.003 13.5719 143.003 13.7426C143.003 13.9133 142.928 14.0733 142.779 14.2226C142.629 14.3613 142.437 14.4306 142.203 14.4306H137.883ZM142.195 14.4306L142.355 13.1186H146.675C146.899 13.1186 147.059 13.1826 147.155 13.3106C147.262 13.4279 147.315 13.5719 147.315 13.7426C147.315 13.9133 147.241 14.0733 147.091 14.2226C146.942 14.3613 146.75 14.4306 146.515 14.4306H142.195ZM146.508 14.4306L146.668 13.1186H150.988C151.212 13.1186 151.372 13.1826 151.468 13.3106C151.574 13.4279 151.628 13.5719 151.628 13.7426C151.628 13.9133 151.553 14.0733 151.404 14.2226C151.254 14.3613 151.062 14.4306 150.828 14.4306H146.508ZM150.82 14.4306L150.98 13.1186H155.3C155.524 13.1186 155.684 13.1826 155.78 13.3106C155.887 13.4279 155.94 13.5719 155.94 13.7426C155.94 13.9133 155.866 14.0733 155.716 14.2226C155.567 14.3613 155.375 14.4306 155.14 14.4306H150.82ZM155.133 14.4306L155.293 13.1186H159.613C159.837 13.1186 159.997 13.1826 160.093 13.3106C160.199 13.4279 160.253 13.5719 160.253 13.7426C160.253 13.9133 160.178 14.0733 160.029 14.2226C159.879 14.3613 159.687 14.4306 159.453 14.4306H155.133ZM159.445 14.4306L159.605 13.1186H163.925C164.149 13.1186 164.309 13.1826 164.405 13.3106C164.512 13.4279 164.565 13.5719 164.565 13.7426C164.565 13.9133 164.491 14.0733 164.341 14.2226C164.192 14.3613 164 14.4306 163.765 14.4306H159.445ZM163.758 14.4306L163.918 13.1186H168.238C168.462 13.1186 168.622 13.1826 168.718 13.3106C168.824 13.4279 168.878 13.5719 168.878 13.7426C168.878 13.9133 168.803 14.0733 168.654 14.2226C168.504 14.3613 168.312 14.4306 168.078 14.4306H163.758ZM168.07 14.4306L168.23 13.1186H172.55C172.774 13.1186 172.934 13.1826 173.03 13.3106C173.137 13.4279 173.19 13.5719 173.19 13.7426C173.19 13.9133 173.116 14.0733 172.966 14.2226C172.817 14.3613 172.625 14.4306 172.39 14.4306H168.07ZM172.383 14.4306L172.543 13.1186H176.863C177.087 13.1186 177.247 13.1826 177.343 13.3106C177.449 13.4279 177.503 13.5719 177.503 13.7426C177.503 13.9133 177.428 14.0733 177.279 14.2226C177.129 14.3613 176.937 14.4306 176.703 14.4306H172.383ZM176.695 14.4306L176.855 13.1186H181.175C181.399 13.1186 181.559 13.1826 181.655 13.3106C181.762 13.4279 181.815 13.5719 181.815 13.7426C181.815 13.9133 181.741 14.0733 181.591 14.2226C181.442 14.3613 181.25 14.4306 181.015 14.4306H176.695ZM181.008 14.4306L181.168 13.1186H185.488C185.712 13.1186 185.872 13.1826 185.968 13.3106C186.074 13.4279 186.128 13.5719 186.128 13.7426C186.128 13.9133 186.053 14.0733 185.904 14.2226C185.754 14.3613 185.562 14.4306 185.328 14.4306H181.008ZM185.32 14.4306L185.48 13.1186H189.8C190.024 13.1186 190.184 13.1826 190.28 13.3106C190.387 13.4279 190.44 13.5719 190.44 13.7426C190.44 13.9133 190.366 14.0733 190.216 14.2226C190.067 14.3613 189.875 14.4306 189.64 14.4306H185.32ZM189.633 14.4306L189.793 13.1186H194.113C194.337 13.1186 194.497 13.1826 194.593 13.3106C194.699 13.4279 194.753 13.5719 194.753 13.7426C194.753 13.9133 194.678 14.0733 194.529 14.2226C194.379 14.3613 194.187 14.4306 193.953 14.4306H189.633ZM193.945 14.4306L194.105 13.1186H198.425C198.649 13.1186 198.809 13.1826 198.905 13.3106C199.012 13.4279 199.065 13.5719 199.065 13.7426C199.065 13.9133 198.991 14.0733 198.841 14.2226C198.692 14.3613 198.5 14.4306 198.265 14.4306H193.945ZM198.258 14.4306L198.418 13.1186H202.738C202.962 13.1186 203.122 13.1826 203.218 13.3106C203.324 13.4279 203.378 13.5719 203.378 13.7426C203.378 13.9133 203.303 14.0733 203.154 14.2226C203.004 14.3613 202.812 14.4306 202.578 14.4306H198.258ZM209.255 6.46259C208.796 6.46259 208.449 6.32392 208.215 6.04659C207.991 5.76925 207.879 5.44392 207.879 5.07059C207.879 4.76125 207.937 4.48392 208.055 4.23859C208.183 3.98259 208.359 3.77992 208.583 3.63059C208.807 3.47059 209.057 3.39058 209.335 3.39058C209.591 3.39058 209.82 3.46525 210.023 3.61458C210.225 3.76392 210.385 3.96125 210.503 4.20658C210.62 4.45192 210.679 4.71325 210.679 4.99059C210.679 5.40659 210.545 5.75859 210.279 6.04659C210.012 6.32392 209.671 6.46259 209.255 6.46259ZM209.239 5.63059C209.42 5.63059 209.575 5.57192 209.703 5.45459C209.841 5.33725 209.911 5.18259 209.911 4.99059C209.911 4.78792 209.841 4.62259 209.703 4.49459C209.564 4.35592 209.415 4.28659 209.255 4.28659C209.052 4.28659 208.892 4.35592 208.775 4.49459C208.668 4.63325 208.615 4.79325 208.615 4.97459C208.615 5.16659 208.673 5.32659 208.791 5.45459C208.908 5.57192 209.057 5.63059 209.239 5.63059ZM202.57 14.4306L202.73 13.1186C203.072 13.1186 203.349 13.0973 203.562 13.0546C203.776 13.0013 203.952 12.8786 204.09 12.6866C204.24 12.4839 204.378 12.1693 204.506 11.7426C204.634 11.3159 204.784 10.7186 204.954 9.95059L206.154 10.2866C206.09 10.5533 206.016 10.8733 205.93 11.2466C205.845 11.6199 205.802 11.9613 205.802 12.2706C205.802 12.4413 205.845 12.5906 205.93 12.7186C206.016 12.8466 206.16 12.9479 206.362 13.0226C206.576 13.0866 206.858 13.1186 207.21 13.1186C207.53 13.1186 207.792 13.0919 207.994 13.0386C208.197 12.9853 208.362 12.8573 208.49 12.6546C208.629 12.4519 208.752 12.1266 208.858 11.6786C208.965 11.2306 209.077 10.6173 209.194 9.83859L210.41 10.0626C210.378 10.2546 210.341 10.4893 210.298 10.7666C210.256 11.0439 210.213 11.3213 210.17 11.5986C210.138 11.8653 210.122 12.0893 210.122 12.2706C210.122 12.4199 210.154 12.5639 210.218 12.7026C210.293 12.8306 210.432 12.9319 210.634 13.0066C210.848 13.0813 211.162 13.1186 211.578 13.1186C212.112 13.1186 212.496 13.0066 212.73 12.7826C212.976 12.5586 213.098 12.2173 213.098 11.7586C213.098 11.5133 213.093 11.2573 213.082 10.9906C213.072 10.7133 213.05 10.4093 213.018 10.0786C212.997 9.73725 212.96 9.34792 212.906 8.91059L214.074 8.83059C214.138 9.69459 214.208 10.4039 214.282 10.9586C214.368 11.5133 214.485 11.9506 214.634 12.2706C214.794 12.5799 215.008 12.7986 215.274 12.9266C215.541 13.0546 215.893 13.1186 216.33 13.1186C216.554 13.1186 216.714 13.1826 216.81 13.3106C216.917 13.4279 216.97 13.5719 216.97 13.7426C216.97 13.9133 216.896 14.0733 216.746 14.2226C216.597 14.3613 216.405 14.4306 216.17 14.4306C215.808 14.4306 215.482 14.3826 215.194 14.2866C214.917 14.1799 214.672 14.0413 214.458 13.8706C214.256 13.6893 214.085 13.4866 213.946 13.2626C213.818 13.0279 213.728 12.7826 213.674 12.5266L213.962 12.6226C213.845 13.1026 213.658 13.4759 213.402 13.7426C213.157 13.9986 212.864 14.1799 212.522 14.2866C212.181 14.3826 211.818 14.4306 211.434 14.4306C210.965 14.4306 210.581 14.3719 210.282 14.2546C209.984 14.1373 209.749 13.9613 209.578 13.7266C209.418 13.4813 209.312 13.1719 209.258 12.7986H209.802C209.6 13.2573 209.386 13.6039 209.162 13.8386C208.938 14.0733 208.661 14.2333 208.33 14.3186C208 14.3933 207.562 14.4306 207.018 14.4306C206.752 14.4306 206.464 14.3879 206.154 14.3026C205.856 14.2173 205.594 14.0519 205.37 13.8066C205.146 13.5506 205.013 13.1719 204.97 12.6706L205.45 12.5746C205.269 13.1186 205.045 13.5239 204.778 13.7906C204.522 14.0466 204.213 14.2173 203.85 14.3026C203.488 14.3879 203.061 14.4306 202.57 14.4306ZM216.242 20.0866V19.1906L219.826 18.1346V19.0466L216.242 20.0866ZM216.164 14.4306L216.324 13.1186C216.847 13.1186 217.263 13.0866 217.572 13.0226C217.881 12.9586 218.105 12.8306 218.244 12.6386C218.383 12.4359 218.452 12.1373 218.452 11.7426C218.452 11.4759 218.409 11.1613 218.324 10.7986C218.239 10.4253 218.127 10.0306 217.988 9.61459C217.849 9.19859 217.7 8.78792 217.54 8.38259L218.836 7.90259C218.975 8.24392 219.103 8.63325 219.22 9.07059C219.348 9.50792 219.455 9.93992 219.54 10.3666C219.625 10.7933 219.668 11.1666 219.668 11.4866C219.668 11.9133 219.62 12.2919 219.524 12.6226C219.439 12.9426 219.305 13.2199 219.124 13.4546C218.943 13.6786 218.708 13.8653 218.42 14.0146C218.143 14.1533 217.817 14.2599 217.444 14.3346C217.071 14.3986 216.644 14.4306 216.164 14.4306ZM217.876 17.4066C217.652 17.4066 217.46 17.3266 217.3 17.1666C217.151 17.0173 217.076 16.8359 217.076 16.6226C217.076 16.4093 217.151 16.2226 217.3 16.0626C217.46 15.9026 217.652 15.8226 217.876 15.8226C218.089 15.8226 218.271 15.9026 218.42 16.0626C218.58 16.2226 218.66 16.4093 218.66 16.6226C218.66 16.8359 218.58 17.0173 218.42 17.1666C218.271 17.3266 218.089 17.4066 217.876 17.4066Z" fill="#1E1E1E"/>
</svg>
