<svg width="40" height="64" viewBox="0 0 40 64" fill="none" xmlns="http://www.w3.org/2000/svg">
<mask id="mask0_181_981" style="mask-type:luminance" maskUnits="userSpaceOnUse" x="0" y="0" width="40" height="64">
<path d="M0 0.67334H40V63.2829H0V0.67334Z" fill="white"/>
</mask>
<g mask="url(#mask0_181_981)">
<path d="M36.8597 10.8059C37.1545 10.6856 37.346 10.6297 37.346 10.6297C37.346 10.6297 37.1936 10.7607 36.9454 10.9529C36.6973 11.1444 36.358 11.401 35.9727 11.6568C35.5874 11.9134 35.2252 12.1241 34.9563 12.2749C34.6875 12.4251 34.5121 12.5108 34.5121 12.5108C34.5121 12.5108 34.6285 12.3638 34.8445 12.147C35.0597 11.9303 35.3783 11.6461 35.7743 11.3819C36.1703 11.1176 36.5655 10.9269 36.8597 10.8059ZM20.6028 28.9952C20.6028 28.9952 20.5821 28.8903 20.5614 28.721C20.5407 28.5533 20.5185 28.322 20.5147 28.0661C20.5101 27.8088 20.5254 27.5714 20.5392 27.3952C20.5537 27.2198 20.5698 27.1072 20.5698 27.1072C20.5698 27.1072 20.638 27.206 20.7077 27.3753C20.7782 27.5438 20.8494 27.785 20.854 28.0531C20.8586 28.322 20.795 28.5617 20.7307 28.7294C20.6663 28.8972 20.6028 28.9952 20.6028 28.9952ZM30.8586 28.6521C30.8586 28.6521 30.8617 28.718 30.8571 28.8397C30.8525 28.9608 30.8325 29.1362 30.7805 29.3491C30.6794 29.7749 30.4105 30.3433 29.9579 30.8342C29.5075 31.3267 29.0073 31.6515 28.6443 31.8675C28.2782 32.0812 28.0392 32.1915 28.0392 32.1915C28.0392 32.1915 28.2253 32.0153 28.534 31.738C28.8411 31.4592 29.2708 31.0816 29.6959 30.619C30.1225 30.1587 30.4412 29.6769 30.6189 29.2962C30.7085 29.1063 30.7697 28.9447 30.805 28.8305C30.841 28.7172 30.8586 28.6521 30.8586 28.6521ZM29.4723 26.5726C29.5956 26.5511 29.6637 26.5396 29.6637 26.5396C29.6637 26.5396 29.5542 26.5917 29.365 26.6813C29.7135 26.676 29.9272 26.699 29.9272 26.699C29.9272 26.699 29.702 26.7556 29.3344 26.8483C29.1398 26.8966 28.9047 26.9571 28.6427 27.026C28.3088 27.1892 27.9136 27.3852 27.4885 27.6028C26.888 27.9099 26.3404 28.2032 25.9444 28.4246C25.5476 28.6467 25.2987 28.7869 25.2987 28.7869C25.2987 28.7869 25.3492 28.7363 25.4404 28.6467C25.5323 28.5579 25.6694 28.433 25.844 28.2867C26.1359 28.0432 26.5426 27.7445 27.0251 27.4687C26.8114 27.53 26.6161 27.5867 26.4491 27.638C26.073 27.7513 25.8364 27.8226 25.8364 27.8226C25.8364 27.8226 26.0355 27.674 26.381 27.4825C26.7256 27.2903 27.2227 27.0589 27.7987 26.9012C28.1893 26.7947 28.5608 26.7373 28.8817 26.7074C28.9062 26.7005 28.9323 26.6936 28.956 26.6875C29.1728 26.6316 29.3497 26.594 29.4723 26.5726ZM27.7604 27.7935C28.6343 27.4909 29.4569 27.3477 30.0505 27.288C30.3477 27.2589 30.589 27.2443 30.7552 27.242C30.9214 27.2389 31.0133 27.2374 31.0133 27.2374C31.0133 27.2374 30.9252 27.2573 30.7667 27.2933C30.6074 27.3278 30.3776 27.3822 30.0942 27.4519C29.5274 27.5936 28.7484 27.8111 27.8937 28.106C27.4663 28.2546 27.0603 28.407 26.6919 28.5533C26.325 28.7042 25.9934 28.8428 25.7177 28.9707C25.4412 29.0956 25.2175 29.2013 25.0636 29.2778C24.9088 29.3521 24.823 29.3943 24.823 29.3943C24.823 29.3943 24.8989 29.3368 25.0337 29.2342C25.17 29.13 25.3722 28.9891 25.6296 28.8252C25.8854 28.6605 26.2002 28.4813 26.5594 28.2998C26.9194 28.1221 27.3246 27.9451 27.7604 27.7935ZM30.4932 23.9631C30.6204 23.9248 30.6908 23.9033 30.6908 23.9033C30.6908 23.9033 30.4473 24.0542 30.0505 24.3001C29.6553 24.5482 29.1146 24.899 28.5217 25.3096C27.9289 25.7193 27.395 26.113 27.0113 26.4094C26.6291 26.7089 26.3894 26.8966 26.3894 26.8966C26.3894 26.8966 26.4353 26.8361 26.5181 26.7281C26.6023 26.6201 26.7287 26.4684 26.8926 26.2884C27.2189 25.9284 27.7075 25.462 28.3126 25.0415C28.9185 24.621 29.519 24.3322 29.9617 24.1553C30.1838 24.0665 30.3661 24.0029 30.4932 23.9631ZM32.3154 22.7475C32.4885 22.7054 32.5842 22.6824 32.5842 22.6824C32.5842 22.6824 32.4969 22.723 32.3376 22.7958C32.1798 22.8701 31.95 22.9773 31.6659 23.1106C31.0999 23.3817 30.3217 23.77 29.4723 24.2441C28.6244 24.7167 27.8523 25.1793 27.3162 25.5386C27.0504 25.7201 26.8551 25.8917 26.7295 26.0211C26.6046 26.1513 26.5441 26.2333 26.5441 26.2333C26.5441 26.2333 26.5855 26.1414 26.6866 25.9897C26.7877 25.8388 26.9585 25.6313 27.2028 25.4114C27.6961 24.9764 28.4222 24.4441 29.2854 23.9608C30.1486 23.4782 30.9804 23.1565 31.5885 22.9589C31.8934 22.8609 32.1423 22.7919 32.3154 22.7475ZM22.3499 29.9725C22.3491 30.0024 22.3468 30.0308 22.3453 30.0599C22.3652 29.9794 22.3859 29.8975 22.4065 29.8132C22.4893 29.4862 22.5658 29.1875 22.6179 28.9608C22.644 28.8482 22.6662 28.754 22.68 28.6888C22.6953 28.6222 22.7037 28.5854 22.7037 28.5854C22.7037 28.5854 22.7144 28.6199 22.7321 28.6827C22.7504 28.7463 22.7704 28.839 22.7872 28.9562C22.8209 29.189 22.8286 29.5252 22.7382 29.8868C22.6486 30.2475 22.4808 30.5508 22.3361 30.7484C22.2687 30.8411 22.2082 30.9131 22.1614 30.9629C22.1446 31.0089 22.1354 31.0341 22.1354 31.0341C22.1354 31.0341 22.1346 31.0188 22.1339 30.9912C22.0979 31.0288 22.0772 31.0502 22.0772 31.0502C22.0772 31.0502 22.0971 30.9797 22.13 30.8626C22.1293 30.7752 22.1231 30.6604 22.1147 30.5225C22.1071 30.3678 22.0864 30.1878 22.0642 29.9909C22.0374 29.7941 22.0044 29.5819 21.9638 29.3606C21.8811 28.9202 21.7808 28.5242 21.6896 28.2339C21.6452 28.0884 21.6061 27.9689 21.5763 27.8877C21.5479 27.805 21.5318 27.7582 21.5318 27.7582C21.5318 27.7582 21.5632 27.7942 21.6199 27.8578C21.6774 27.9222 21.7532 28.021 21.8382 28.1504C22.0075 28.4093 22.2043 28.806 22.2947 29.2863C22.3399 29.526 22.3545 29.7604 22.3499 29.9725ZM21.3878 28.1764C21.3878 28.1764 21.4813 28.3465 21.6084 28.6368C21.7333 28.9271 21.8972 29.3407 21.9876 29.8354C22.032 30.0821 22.0519 30.3241 22.0496 30.5462C22.0427 30.7684 22.0228 30.969 21.983 31.1337C21.9677 31.2164 21.9447 31.29 21.9255 31.3543C21.9071 31.4186 21.8872 31.473 21.8689 31.5167C21.8329 31.604 21.8129 31.6522 21.8129 31.6522C21.8129 31.6522 21.8145 31.5994 21.8168 31.5059C21.8198 31.46 21.8206 31.4033 21.8191 31.3382C21.8183 31.2731 21.8198 31.2003 21.8137 31.1199C21.8099 30.9598 21.7869 30.7714 21.7639 30.5677C21.7348 30.3624 21.698 30.1411 21.6567 29.9074C21.5717 29.441 21.4935 29.0121 21.4484 28.6942C21.4016 28.3779 21.3878 28.1764 21.3878 28.1764ZM19.4071 34.0818C19.5527 33.6659 19.6997 33.2078 19.8338 32.7222C19.967 32.2366 20.0712 31.7702 20.1562 31.3428C20.1961 31.1291 20.2359 30.9261 20.2627 30.7347C20.2964 30.5424 20.3178 30.3639 20.3401 30.2C20.3653 30.0354 20.3761 29.8868 20.3914 29.7566C20.4075 29.6248 20.4166 29.5115 20.4235 29.4195C20.4396 29.2342 20.4496 29.1308 20.4496 29.1308C20.4496 29.1308 20.4588 29.2319 20.4764 29.4142C20.4848 29.5061 20.4948 29.6179 20.4986 29.7489C20.5024 29.8791 20.5147 30.0292 20.5101 30.1947C20.5132 30.8557 20.4396 31.7855 20.1677 32.7858C20.0314 33.286 19.8606 33.7532 19.6814 34.1691C19.4937 34.5819 19.3091 34.948 19.1299 35.2429C19.0449 35.393 18.9583 35.5233 18.8832 35.6381C18.8105 35.7538 18.7423 35.8511 18.6849 35.9284C18.5707 36.0847 18.5079 36.1712 18.5079 36.1712C18.5079 36.1712 18.5539 36.0763 18.6374 35.9039C18.6803 35.8189 18.7316 35.7147 18.7867 35.5907C18.8427 35.4681 18.9093 35.3318 18.9736 35.1755C19.1115 34.8676 19.2555 34.4946 19.4071 34.0818ZM36.5142 7.05818C36.5142 7.05818 36.6023 6.86517 36.7563 6.57105C36.911 6.2777 37.1277 5.88171 37.3935 5.46734C37.6578 5.05374 37.9243 4.69681 38.1242 4.43946C38.3241 4.18287 38.4605 4.02816 38.4605 4.02816C38.4605 4.02816 38.4015 4.21734 38.2766 4.51452C38.151 4.8117 37.9565 5.21688 37.6861 5.63967C37.415 6.0617 37.1216 6.42016 36.8964 6.66755C36.6705 6.91572 36.5142 7.05818 36.5142 7.05818ZM38.7584 4.91204C38.8158 4.76498 38.848 4.68303 38.848 4.68303C38.848 4.68303 38.8342 4.76881 38.8105 4.922C38.7959 4.99936 38.7722 5.09203 38.7462 5.2008C38.7132 5.30726 38.681 5.43211 38.629 5.56308C38.5317 5.82963 38.3862 6.13753 38.1878 6.45846C37.9902 6.77938 37.7412 7.11333 37.4571 7.44421C37.1729 7.77509 36.8826 8.07227 36.6138 8.33882C36.3465 8.60536 36.0999 8.8428 35.8908 9.04118C35.4718 9.43793 35.2014 9.6769 35.2014 9.6769C35.2014 9.6769 35.4067 9.38278 35.7598 8.93241C35.9367 8.70723 36.1496 8.44298 36.3932 8.15576C36.6375 7.8739 36.9049 7.56369 37.1852 7.23971C37.4632 6.91725 37.7206 6.60858 37.9381 6.31599C38.1564 6.02417 38.3348 5.74767 38.4689 5.50564C38.5401 5.38615 38.5907 5.27126 38.6427 5.17322C38.6872 5.07135 38.7285 4.9848 38.7584 4.91204ZM15.3707 50.1617C15.4787 50.1388 15.5836 50.1096 15.6855 50.0782C15.72 50.3892 15.7223 50.763 15.6556 51.1536C15.5867 51.182 15.5132 51.2103 15.4381 51.2379C15.468 50.894 15.4381 50.5631 15.3692 50.2728C15.36 50.236 15.3492 50.2023 15.3401 50.1679C15.35 50.1656 15.36 50.164 15.3707 50.1617ZM16.2262 50.8587C16.1619 50.9009 16.0907 50.9437 16.0118 50.9859C16.0347 50.6175 15.9796 50.2782 15.8946 50.0047C16.0447 49.948 16.1841 49.8845 16.3097 49.8171C16.3204 50.1288 16.312 50.4926 16.2262 50.8587ZM15.8402 51.7702C15.8938 51.6331 15.9382 51.486 15.9696 51.329C15.9781 51.2861 15.9827 51.2432 15.9896 51.2011C16.0133 51.1843 16.0393 51.1682 16.0623 51.1521C16.1006 51.1237 16.1343 51.0954 16.168 51.0671C16.0845 51.3298 15.9666 51.5649 15.8402 51.7702ZM14.8154 51.4393C14.8284 51.0579 14.7541 50.7209 14.6875 50.4742C14.6637 50.393 14.6415 50.3203 14.6208 50.2567C14.7633 50.2498 14.9142 50.236 15.0712 50.2138C15.121 50.5332 15.1394 50.8924 15.095 51.2662C15.0919 51.2968 15.0865 51.3275 15.0819 51.3589C14.9954 51.3857 14.9058 51.4125 14.8154 51.4393ZM14.1169 50.6152C14.0832 50.485 14.0433 50.3639 14.0027 50.2506C14.1529 50.2598 14.326 50.2644 14.5159 50.2598C14.5167 50.3302 14.5182 50.4091 14.519 50.4995C14.5205 50.7798 14.5274 51.149 14.4745 51.5366C14.3888 51.5603 14.3014 51.5841 14.2134 51.6086C14.2134 51.604 14.2141 51.5994 14.2149 51.5948C14.2371 51.2417 14.1919 50.907 14.1169 50.6152ZM15.0727 49.5038C14.9586 49.2993 14.846 49.1476 14.7625 49.0496C14.6791 48.9508 14.6285 48.9002 14.6285 48.9002C14.6285 48.9002 14.6622 48.9638 14.7181 49.0795C14.7756 49.1936 14.8483 49.3636 14.9188 49.5758C14.951 49.6715 14.9808 49.7772 15.0076 49.8898C14.8376 49.9235 14.6737 49.9526 14.5205 49.9787C14.5167 49.971 14.5144 49.9657 14.5144 49.9657C14.5144 49.9657 14.5144 49.971 14.5144 49.9802C14.2984 50.0177 14.1015 50.0484 13.9346 50.0767C13.9039 50.004 13.8725 49.9335 13.8419 49.8684C13.7438 49.6654 13.6519 49.5076 13.5853 49.4004C13.5187 49.2939 13.4788 49.2365 13.4788 49.2365C13.4788 49.2365 13.4995 49.3031 13.537 49.4241C13.5753 49.5436 13.6274 49.7175 13.6841 49.9312C13.6987 49.9879 13.714 50.0491 13.7285 50.1127C13.4957 50.1533 13.3571 50.1824 13.3571 50.1824C13.3571 50.1824 13.5064 50.2077 13.7553 50.2322C13.8411 50.6182 13.9108 51.09 13.8741 51.5887C13.8718 51.627 13.8664 51.6645 13.8618 51.702C13.0683 51.9073 12.3506 52.0566 11.8267 52.1516C11.5586 52.2014 11.3419 52.2366 11.1925 52.2619C11.0424 52.2864 10.9597 52.2994 10.9597 52.2994C10.9597 52.2994 11.0455 52.304 11.2002 52.314C11.3549 52.3201 11.5793 52.327 11.8581 52.3186C12.3652 52.3048 13.0545 52.2405 13.8028 52.0643C13.7056 52.4886 13.5317 52.8456 13.3486 53.0868C13.2253 53.2515 13.1058 53.371 13.017 53.446C12.9741 53.4859 12.9358 53.5104 12.912 53.5303C12.8883 53.5494 12.8753 53.5594 12.8753 53.5594C12.8753 53.5594 12.8906 53.554 12.9205 53.5426C12.9496 53.5303 12.9955 53.5165 13.0492 53.4882C13.1602 53.4361 13.3157 53.3426 13.4827 53.1902C13.7569 52.9482 14.0372 52.5131 14.1567 51.9732C14.2417 51.9494 14.3252 51.9249 14.4071 51.8996C14.3168 52.2726 14.1628 52.5859 14.0249 52.8088C13.9445 52.9382 13.8702 53.0386 13.8166 53.106C13.7622 53.1734 13.7324 53.2101 13.7324 53.2101C13.7324 53.2101 13.7776 53.1895 13.8549 53.1427C13.9323 53.096 14.0426 53.021 14.1628 52.9076C14.401 52.6878 14.6882 52.2926 14.7794 51.7763C14.8629 51.7472 14.9441 51.7173 15.023 51.6867C14.9173 52.1578 14.7388 52.5591 14.5688 52.8471C14.46 53.0332 14.3581 53.1764 14.2846 53.2737C14.2088 53.3695 14.1666 53.4215 14.1666 53.4215C14.1666 53.4215 14.2249 53.3848 14.3252 53.3074C14.4248 53.2301 14.5634 53.1083 14.7143 52.9352C14.9808 52.6342 15.2772 52.1432 15.3967 51.532C15.4664 51.4998 15.5323 51.4669 15.5974 51.4332C15.4779 51.9157 15.2772 52.3217 15.0965 52.602C14.9961 52.7582 14.9058 52.8793 14.8399 52.9604C14.7733 53.0409 14.7365 53.0853 14.7365 53.0853C14.7365 53.0853 14.7886 53.057 14.879 52.9964C14.9693 52.9352 15.095 52.8387 15.2359 52.6985C15.2711 52.6648 15.3071 52.6273 15.3431 52.5859C15.4174 52.5369 15.5017 52.4771 15.5936 52.4029C15.7521 52.2765 15.9329 52.1103 16.1022 51.892C16.2714 51.676 16.4277 51.4033 16.5188 51.0877C16.5655 50.9246 16.5908 50.7622 16.6015 50.6052C16.6207 50.5761 16.6375 50.5501 16.6483 50.5309C16.6689 50.4949 16.6804 50.4765 16.6804 50.4765C16.6804 50.4765 16.6651 50.4919 16.6368 50.5225C16.6283 50.5317 16.6153 50.5439 16.6038 50.5554C16.61 50.426 16.6069 50.3004 16.5969 50.1824C16.5809 50.004 16.5518 49.8408 16.5173 49.6937C16.5824 49.6524 16.6444 49.6103 16.6988 49.5681C16.8482 49.4548 16.9577 49.3498 17.0289 49.274C17.0994 49.1974 17.1346 49.1515 17.1346 49.1515C17.1346 49.1515 17.0848 49.1806 16.996 49.2319C16.9071 49.2824 16.7754 49.3506 16.61 49.4234C16.5648 49.4441 16.5165 49.464 16.4652 49.4854C16.4637 49.4793 16.4621 49.4732 16.4614 49.4678C16.4047 49.2694 16.3495 49.1132 16.309 49.0044C16.2668 48.8972 16.2439 48.8374 16.2439 48.8374C16.2439 48.8374 16.263 49.0925 16.2944 49.5C16.2952 49.5161 16.2959 49.5329 16.2967 49.549C16.1412 49.6057 15.9696 49.6608 15.7843 49.7121C15.7138 49.5544 15.6426 49.4318 15.5867 49.3498C15.5246 49.2572 15.4856 49.2089 15.4856 49.2089C15.4856 49.2089 15.5047 49.2679 15.5392 49.3728C15.5683 49.464 15.6028 49.5949 15.6342 49.752C15.5216 49.7811 15.4044 49.8086 15.2849 49.8339C15.2673 49.8377 15.2504 49.8408 15.2336 49.8446C15.183 49.7183 15.1287 49.6041 15.0727 49.5038ZM38.822 5.79133C38.5746 6.91036 38.2452 8.03168 37.9266 9.15147C37.6026 10.2713 37.2648 11.3865 36.911 12.4986C36.826 12.7659 36.7371 13.0324 36.6506 13.2998C36.6222 13.3059 36.5924 13.3128 36.5609 13.3204C36.3181 13.3794 35.988 13.4782 35.648 13.6299C35.3071 13.7815 35.0214 13.9562 34.823 14.0925C34.6254 14.2296 34.5121 14.3261 34.5121 14.3261C34.5121 14.3261 34.6676 14.3024 34.9042 14.2411C35.1417 14.1798 35.4603 14.0841 35.7943 13.9355C36.1068 13.7968 36.3787 13.636 36.5839 13.5043C36.5119 13.7241 36.4422 13.9439 36.3687 14.163L36.2783 14.4318C36.1734 14.4471 36.0118 14.4732 35.8065 14.5145C35.4373 14.5888 34.9341 14.7152 34.4056 14.9113C33.8779 15.1081 33.4275 15.3364 33.1135 15.5148C32.7979 15.6941 32.6156 15.8204 32.6156 15.8204C32.6156 15.8204 32.8393 15.7676 33.1901 15.6665C33.5409 15.5638 34.0196 15.4168 34.5374 15.2238C35.0567 15.0308 35.5216 14.8286 35.8609 14.6754C36.0286 14.5995 36.165 14.5352 36.2599 14.4885L36.0899 14.9932L35.8494 15.6948L35.4542 15.8848L34.941 16.1391L34.4301 16.3995L34.1222 16.5596L33.7691 16.7495C33.3042 17.0038 32.8431 17.2657 32.4402 17.5254C32.0251 17.7866 31.6222 18.0432 31.1941 18.3304C31.1994 18.3335 31.191 18.3396 31.2079 18.3396L31.3151 18.3503L31.4591 18.3641L31.7448 18.3924L32.3039 18.4407C32.6746 18.4698 33.0369 18.4989 33.4206 18.5134C33.8044 18.5272 34.2019 18.5295 34.6071 18.5112C34.6729 18.5066 34.7442 18.5035 34.8108 18.4997C34.771 18.5295 34.7258 18.5632 34.6722 18.6023C34.6193 18.6414 34.5603 18.6843 34.4952 18.7317C34.4209 18.7402 34.3329 18.7517 34.2302 18.767C33.93 18.8122 33.5187 18.8926 33.0852 19.0289C32.6524 19.1645 32.2794 19.3284 32.0174 19.4586C31.7547 19.5888 31.6023 19.683 31.6023 19.683C31.6023 19.683 31.7892 19.6662 32.081 19.6156C32.3736 19.5651 32.7711 19.4816 33.1977 19.3483C33.5501 19.2388 33.8687 19.1109 34.1238 18.9991C34.0433 19.0557 33.9583 19.1155 33.8679 19.1775C33.1824 19.6516 32.2112 20.2682 31.0838 20.8626C30.5223 21.1651 29.9693 21.4186 29.4646 21.6729C28.9614 21.9257 28.5164 22.1876 28.1732 22.4488C28.0966 22.5055 28.0254 22.5629 27.9588 22.6196C27.968 22.6005 27.9787 22.5798 27.9879 22.5606C28.3027 21.928 28.4758 21.5802 28.4758 21.5802C28.4758 21.5802 28.2667 21.9157 27.8875 22.5231C27.8086 22.6533 27.7183 22.7981 27.6233 22.9505C27.5574 23.0286 27.5038 23.1037 27.4663 23.1734C27.4418 23.2163 27.4234 23.2561 27.4081 23.2929C27.3391 23.4009 27.2694 23.5127 27.1951 23.6299C27.1408 23.7172 27.0833 23.8083 27.0259 23.9002C27.0711 23.7769 27.1139 23.6483 27.1507 23.515C27.3039 22.9551 27.3322 22.4335 27.3169 22.0658C27.3093 21.8805 27.2947 21.7327 27.2786 21.6316C27.2633 21.5305 27.2549 21.4745 27.2549 21.4745C27.2549 21.4745 27.2135 21.7013 27.1469 22.0643C27.0772 22.4251 26.9661 22.9091 26.8198 23.4392C26.79 23.5433 26.7609 23.646 26.7317 23.7463C26.7486 23.6804 26.7647 23.6168 26.7831 23.5487C26.8482 23.3143 26.8949 23.0616 26.9523 22.7958C27.0527 22.2642 27.1377 21.679 27.2082 21.0686C27.2733 20.4597 27.3345 19.8837 27.3897 19.3621C27.4196 19.0871 27.451 18.8282 27.4824 18.587C27.7252 18.2615 27.9634 17.9321 28.1993 17.6005C28.1916 17.6977 28.1832 17.805 28.1755 17.9221C28.1319 18.4805 28.1066 19.2533 28.0668 20.0798C28.0269 20.9078 27.9335 21.6346 27.7933 22.1455C27.7627 22.2742 27.7229 22.3868 27.6945 22.4879C27.6585 22.5867 27.631 22.6725 27.6041 22.7414C27.549 22.88 27.5191 22.9559 27.5191 22.9559C27.5191 22.9559 27.5666 22.8869 27.6532 22.7613C27.6953 22.6977 27.7412 22.6165 27.7964 22.5223C27.8446 22.4251 27.9059 22.3155 27.9572 22.1876C28.0683 21.9341 28.1748 21.6193 28.2537 21.2601C28.3325 20.9009 28.3846 20.4987 28.4061 20.0759C28.4291 19.6532 28.4206 19.251 28.4053 18.8857C28.3908 18.5203 28.3678 18.191 28.3456 17.9137C28.3302 17.7376 28.3157 17.5836 28.3027 17.4542C28.4314 17.2711 28.5608 17.0888 28.6879 16.905C28.6849 16.9793 28.6826 17.0643 28.6795 17.1578C28.6696 17.5392 28.655 18.0608 28.6512 18.6283C28.6481 19.1959 28.6558 19.7029 28.6642 20.0698C28.6711 20.4367 28.6818 20.6627 28.6818 20.6627C28.6818 20.6627 28.7561 20.4413 28.8335 20.0737C28.9108 19.706 28.9882 19.1913 28.9905 18.6153C28.9943 18.0401 28.9231 17.517 28.8488 17.1417C28.8212 17 28.7929 16.8797 28.7699 16.7832C29.2509 16.0801 29.7166 15.3662 30.1639 14.6447C30.1647 14.7351 30.1654 14.8385 30.1662 14.9526C30.1662 15.403 30.1501 16.0173 30.1087 16.6967C30.0865 17.036 30.0613 17.3607 30.0352 17.6579C30.0053 17.9543 29.9785 18.2239 29.9479 18.4514C29.9234 18.6276 29.9035 18.7769 29.8866 18.8956C29.7618 19.0266 29.6561 19.1407 29.5772 19.2304C29.4523 19.3728 29.3826 19.4532 29.3826 19.4532C29.3826 19.4532 29.4661 19.3858 29.6162 19.2671C29.6737 19.2196 29.7449 19.163 29.823 19.1017C29.7426 19.2556 29.699 19.3391 29.699 19.3391C29.699 19.3391 29.7564 19.2464 29.8629 19.0733C29.8522 19.1507 29.846 19.1944 29.846 19.1944C29.846 19.1944 29.8713 19.1339 29.9165 19.0282C30.0161 18.9493 30.1271 18.8635 30.2504 18.7685C30.5177 18.5602 30.8425 18.3235 31.201 18.0631C31.5625 17.8057 31.9615 17.53 32.3828 17.2504C33.2253 16.6921 34.0012 16.2287 34.5688 15.9055C34.8522 15.7446 35.0819 15.6159 35.242 15.5301C35.4013 15.4421 35.4894 15.3946 35.4894 15.3946C35.4894 15.3946 35.3921 15.426 35.216 15.4842C35.0398 15.5424 34.7878 15.6343 34.4799 15.7607C33.8649 16.0127 33.03 16.4148 32.1737 16.9824C32.1101 17.0245 32.0496 17.0666 31.9876 17.1087C31.9278 17.1156 31.8175 17.1317 31.6728 17.1708C31.4537 17.229 31.1573 17.3485 30.8816 17.5629C30.7927 17.6319 30.7131 17.7054 30.6418 17.7805C30.7912 17.5292 30.9551 17.2527 31.132 16.9509C31.2461 16.7579 31.3656 16.5542 31.4889 16.342C31.4882 16.3443 31.4867 16.3482 31.4859 16.3505C31.4782 16.3819 31.4736 16.3987 31.4736 16.3987C31.4736 16.3987 31.4828 16.3842 31.4997 16.3558C31.5158 16.3282 31.5426 16.2877 31.577 16.2379C31.6483 16.1383 31.7586 16.0004 31.9171 15.8534C32.2304 15.5577 32.7374 15.2138 33.282 14.8408C33.8289 14.4701 34.3298 14.1553 34.6974 13.9347C35.0666 13.7164 35.2926 13.5824 35.2926 13.5824C35.2926 13.5824 35.2267 13.5992 35.108 13.6299C34.99 13.662 34.8192 13.7126 34.6124 13.7884C34.1996 13.9362 33.6389 14.1882 33.0775 14.5697C32.7964 14.7596 32.5429 14.9634 32.3238 15.161C32.1852 15.2858 32.0619 15.4114 31.9562 15.534C32.608 14.3973 33.3517 13.07 34.1184 11.6415C34.5075 11.3091 35.0605 10.8664 35.6763 10.4114C36.2929 9.9534 36.8612 9.56737 37.2771 9.297C37.6968 9.02892 37.9542 8.86425 37.9542 8.86425C37.9542 8.86425 37.8791 8.88952 37.7451 8.93395C37.611 8.98067 37.4188 9.05266 37.1852 9.15377C36.7195 9.35597 36.0884 9.68149 35.458 10.1502C35.0658 10.4413 34.7242 10.7492 34.4408 11.0364C35.6097 8.82212 36.6322 6.833 37.2419 5.32717C37.2518 5.30343 37.2602 5.28122 37.2702 5.25747C37.2916 5.22914 37.4226 5.05297 37.5988 4.76115C37.7903 4.44252 38.0308 3.98679 38.2253 3.45217C38.4206 2.91755 38.5317 2.40744 38.5907 2.03367C38.6251 1.82074 38.6435 1.65377 38.6527 1.54807C38.7224 1.53275 38.7975 1.52892 38.8618 1.56032C38.9323 1.59173 38.9805 1.65607 39.0142 1.72423C39.0311 1.76176 39.0426 1.78704 39.0564 1.83836C39.0717 1.89197 39.0878 1.95478 39.0992 2.01988C39.123 2.14856 39.1383 2.28643 39.1483 2.42583C39.2126 3.53719 39.0694 4.67307 38.822 5.79133ZM33.21 22.7506C33.1464 22.8065 33.0484 22.8907 32.9228 22.9995C32.6976 23.1941 32.3843 23.4514 32.0397 23.7241C31.695 23.996 31.381 24.2334 31.1504 24.4042C30.9183 24.5743 30.7751 24.6792 30.7751 24.6792C30.7751 24.6792 30.8211 24.6692 30.9015 24.6509C30.9834 24.6317 31.0999 24.5988 31.24 24.5475C31.5211 24.4471 31.8987 24.2679 32.2595 23.9822C32.6195 23.6965 32.8852 23.3656 33.0507 23.1113C33.056 23.1021 33.0614 23.0945 33.0668 23.0853C32.948 23.3633 32.8293 23.6414 32.7106 23.9194C32.6907 23.9653 32.6708 24.0128 32.6509 24.0603C32.5528 24.1369 32.4494 24.2166 32.3407 24.3001C32.1094 24.4701 31.8528 24.6493 31.5778 24.8263C31.0286 25.1793 30.5109 25.452 30.1271 25.6343C29.9364 25.7239 29.7794 25.7959 29.6699 25.8411C29.5611 25.8886 29.5014 25.9146 29.5014 25.9146C29.5014 25.9146 29.568 25.9062 29.6882 25.8909C29.81 25.8748 29.9839 25.8419 30.1968 25.7883C30.6211 25.6818 31.2033 25.4712 31.7762 25.102C32.0128 24.9488 32.2265 24.7818 32.4173 24.6149C32.307 24.8845 32.2005 25.1587 32.1055 25.4352C31.9248 25.9514 31.7723 26.4753 31.6314 26.9969L31.2247 28.5586L31.0171 29.3345C30.9819 29.4632 30.9474 29.5903 30.9099 29.7091C30.8724 29.8286 30.8302 29.935 30.7766 30.0499C30.6686 30.2789 30.5407 30.5217 30.4205 30.7622C30.2933 30.9866 30.1807 31.2149 30.0291 31.4217C29.8935 31.6392 29.7242 31.8345 29.5626 32.0337L29.2992 32.3163C29.2126 32.4113 29.1123 32.4955 29.0196 32.5851C28.2575 33.289 27.3499 33.8382 26.4062 34.3123C25.9314 34.5475 25.4488 34.7696 24.9563 34.9741C24.7112 35.079 24.4638 35.1794 24.2157 35.2797L23.8434 35.4298C23.7117 35.4926 23.5746 35.5424 23.4505 35.619C22.9741 35.8779 22.5888 36.2555 22.2511 36.6308C21.9186 36.7572 21.5249 36.918 21.109 37.1087C20.54 37.3699 20.0344 37.6403 19.6683 37.844C19.5565 37.9061 19.46 37.962 19.3773 38.0102C19.7373 37.5438 20.0804 37.0827 20.4036 36.6331C20.4795 36.6124 20.5629 36.5887 20.6549 36.5619C21.07 36.4408 21.6352 36.257 22.2334 36.0127C22.8316 35.7684 23.3479 35.5095 23.7132 35.3119C24.0793 35.1142 24.2953 34.9794 24.2953 34.9794C24.2953 34.9794 24.0395 35.0392 23.6366 35.161C23.2337 35.282 22.683 35.4627 22.0894 35.7055C21.4951 35.9483 20.9689 36.208 20.5882 36.4064C20.5752 36.4125 20.5645 36.4186 20.5522 36.4248C20.7889 36.0916 21.0156 35.7653 21.2308 35.4474C21.2722 35.4237 21.3235 35.3961 21.3848 35.3639C21.5648 35.269 21.8336 35.1502 22.176 35.0354C22.5184 34.9212 22.9343 34.8132 23.3999 34.693C23.8656 34.572 24.3757 34.4226 24.8958 34.2411C25.9382 33.8765 26.8298 33.4506 27.4525 33.1159C27.765 32.949 28.0101 32.805 28.1786 32.7039C28.3463 32.6012 28.4382 32.5445 28.4382 32.5445C28.4382 32.5445 28.0292 32.7069 27.3659 32.9689C26.7034 33.2285 25.7851 33.5732 24.7579 33.9301C24.2432 34.1101 23.7507 34.2748 23.2973 34.4249C22.8439 34.575 22.4333 34.7259 22.1017 34.8829C21.7693 35.0392 21.5181 35.1985 21.3541 35.3203C21.3258 35.3417 21.3013 35.3601 21.2776 35.3785C21.4384 35.1403 21.5939 34.9067 21.7417 34.6792C21.757 34.6715 21.7708 34.6646 21.7869 34.6562C22.032 34.5291 22.3943 34.3629 22.8569 34.1974C23.318 34.0297 23.8787 33.8635 24.4983 33.6582C25.1187 33.4545 25.7942 33.1833 26.4499 32.8149C27.104 32.4434 27.6861 32.0275 28.1686 31.6025C28.6542 31.1781 29.0456 30.7553 29.3512 30.3839C29.6591 30.0147 29.8721 29.6907 30.0199 29.4709C30.1585 29.2434 30.2351 29.1193 30.2351 29.1193C30.2351 29.1193 30.1417 29.235 29.9732 29.4448C29.7978 29.6486 29.5496 29.948 29.2118 30.2866C28.8756 30.6274 28.4574 31.0142 27.9603 31.4033C27.4647 31.7939 26.8872 32.18 26.2515 32.5377C25.6127 32.8915 24.9739 33.1695 24.3727 33.3993C23.773 33.6306 23.2238 33.839 22.7765 34.0473C22.3606 34.2388 22.0343 34.4287 21.8083 34.5781C22.2151 33.9516 22.572 33.3725 22.8753 32.8616C23.1342 32.4251 23.3563 32.0398 23.5378 31.7158C23.6389 31.6522 23.7645 31.5764 23.9116 31.4906C24.1138 31.3681 24.3597 31.2356 24.6316 31.0923C24.9058 30.9522 25.2075 30.8059 25.5277 30.6634C26.168 30.3793 26.7586 30.1671 27.1913 30.0292C27.4081 29.9611 27.5835 29.9067 27.706 29.8737C27.8278 29.8377 27.8952 29.8178 27.8952 29.8178C27.8952 29.8178 27.8232 29.8194 27.693 29.8217C27.5628 29.824 27.3744 29.8377 27.1423 29.8668C26.6781 29.9251 26.0363 30.066 25.373 30.3609C25.0429 30.5087 24.7403 30.6803 24.4761 30.8511C24.2141 31.0265 23.9874 31.198 23.8082 31.3558C23.7584 31.3979 23.7132 31.4385 23.6703 31.4784C23.7232 31.3819 23.7722 31.2907 23.8166 31.2088C23.9055 31.0418 23.9775 30.9085 24.0311 30.8074C24.1559 30.7538 24.4301 30.6343 24.8054 30.4712C25.3278 30.2452 26.0478 29.9434 26.8336 29.6241C27.621 29.3047 28.3264 29.0266 28.8381 28.8298C29.3497 28.6322 29.663 28.5119 29.663 28.5119C29.663 28.5119 29.3214 28.5525 28.776 28.672C28.2307 28.79 27.4824 28.9945 26.6858 29.3184C25.89 29.6424 25.2022 30.0239 24.7196 30.3249C24.401 30.524 24.172 30.6833 24.051 30.7706C24.1115 30.6581 24.1437 30.5975 24.1437 30.5975C24.1437 30.5975 24.0832 30.6787 23.9698 30.8296C23.9606 30.8373 23.9552 30.8411 23.9552 30.8411C23.9552 30.8411 23.9583 30.8396 23.9644 30.8373C23.8993 30.9231 23.8181 31.0318 23.7209 31.162C23.5861 31.3443 23.4222 31.5688 23.2276 31.8261C23.0338 32.0835 22.8201 32.3814 22.5735 32.7039C22.3307 33.0279 22.0634 33.3832 21.7769 33.7647C21.4882 34.1453 21.181 34.5513 20.8563 34.9794C20.2014 35.8296 19.4807 36.7656 18.7209 37.7513C17.9526 38.7302 17.2174 39.6662 16.5479 40.5194C16.5219 40.5516 16.4966 40.5838 16.4698 40.6159C16.4323 40.6305 16.3924 40.6458 16.3495 40.6627C16.0516 40.7814 15.6503 40.9713 15.2451 41.2486C16.9654 39.323 19.123 36.7097 21.2492 33.7248C22.4012 32.111 23.4283 30.5401 24.3221 29.0956C25.216 27.6518 25.9765 26.3344 26.587 25.2176C26.7249 24.9657 26.8558 24.7267 26.9807 24.4977C27.2005 24.3445 27.5145 24.1538 27.9143 23.9554C28.7829 23.5219 30.026 22.9995 31.3051 22.2612C31.9431 21.8904 32.5237 21.4922 33.0109 21.0839C33.4988 20.6764 33.8963 20.2644 34.195 19.8937C34.4883 19.5298 34.6898 19.2112 34.8192 18.9822C34.2831 20.2383 33.7462 21.4945 33.21 22.7506ZM22.9534 38.5839L23.1671 38.5763C23.7362 38.5556 24.3191 38.5027 24.8882 38.3618C25.0658 38.3158 25.2405 38.2607 25.4121 38.2017C23.3211 39.9044 20.6863 40.9468 17.981 41.1207C17.8653 41.1283 17.7543 41.1375 17.6493 41.1483C17.5436 41.1529 17.4433 41.159 17.3476 41.1659C17.1568 41.1781 16.9868 41.2065 16.8405 41.218C16.7769 41.2241 16.718 41.2317 16.6636 41.2402C16.7808 41.1123 16.8987 40.9828 17.019 40.8503C17.1285 40.7262 17.2396 40.5991 17.3514 40.4712C17.3721 40.4758 17.3935 40.4811 17.4165 40.4865C17.4594 40.4964 17.5069 40.5064 17.559 40.5187C17.6118 40.5271 17.6685 40.5363 17.7298 40.5462C17.8523 40.5654 17.9917 40.5899 18.1472 40.6014C18.2245 40.6083 18.3065 40.6159 18.3915 40.6236C18.4765 40.6259 18.5646 40.629 18.6565 40.632C18.8396 40.642 19.0341 40.6282 19.2402 40.6221C19.6499 40.5922 20.0973 40.5263 20.5514 40.4061C21.0072 40.2873 21.42 40.1188 21.7823 39.9457C21.8719 39.8998 21.9585 39.8554 22.0427 39.8117C22.1277 39.768 22.2051 39.7175 22.2817 39.6731C22.4364 39.5858 22.5704 39.49 22.6938 39.405C22.8194 39.323 22.922 39.2327 23.0154 39.1607C23.1104 39.0894 23.1855 39.0213 23.2468 38.9646C23.3685 38.8528 23.4359 38.7915 23.4359 38.7915C23.4359 38.7915 23.3555 38.839 23.2108 38.9255C23.1403 38.9692 23.053 39.0228 22.9473 39.0779C22.8424 39.1339 22.7282 39.2043 22.5934 39.2679C22.4609 39.3345 22.3169 39.4088 22.1561 39.4778C22.0006 39.5528 21.8267 39.6202 21.6467 39.6937C21.2821 39.8324 20.8777 39.971 20.4427 40.0851C20.0061 40.1977 19.5841 40.2797 19.1942 40.3387C18.9989 40.3609 18.812 40.3907 18.6359 40.4007C18.5478 40.4076 18.462 40.4145 18.38 40.4221C18.2981 40.4252 18.2192 40.429 18.1441 40.4313C17.9917 40.4421 17.8554 40.4375 17.7336 40.439C17.6118 40.4413 17.5069 40.439 17.4211 40.4336C17.4081 40.4329 17.3966 40.4329 17.3851 40.4321C17.5482 40.246 17.7121 40.0553 17.8776 39.86C17.9695 39.8806 18.0836 39.9036 18.2177 39.9251C18.5822 39.9848 19.0969 40.02 19.6507 39.9511C20.2045 39.8837 20.6801 39.7267 21.0072 39.5881C21.1711 39.5176 21.2998 39.4548 21.3863 39.4073C21.4721 39.3598 21.5196 39.3338 21.5196 39.3338C21.5196 39.3338 21.2998 39.3698 20.949 39.4287C20.5989 39.4862 20.1225 39.5528 19.5956 39.6172C19.0686 39.6807 18.5838 39.7297 18.223 39.7558C18.1196 39.7627 18.0292 39.7688 17.9496 39.7742C18.0308 39.6784 18.112 39.5819 18.1931 39.4846C18.2314 39.4938 18.3402 39.5199 18.5011 39.5413C18.701 39.5681 18.9798 39.5812 19.2785 39.5383C19.5772 39.4954 19.8338 39.4058 20.0107 39.3269C20.1884 39.2472 20.2895 39.1821 20.2895 39.1821C20.2895 39.1821 20.1608 39.1676 19.9647 39.1637C19.7679 39.1591 19.506 39.1637 19.2233 39.2043C18.9399 39.2441 18.6833 39.3146 18.4919 39.3721C18.354 39.4142 18.2514 39.4517 18.2054 39.4693C18.5616 39.0419 18.9223 38.5962 19.2808 38.1351C19.3949 38.1037 19.5504 38.0585 19.7396 37.998C20.1424 37.8701 20.6901 37.674 21.2645 37.4097C21.443 37.3278 21.6115 37.2451 21.7716 37.1623C21.7417 37.193 21.7103 37.2244 21.6804 37.255L21.5855 37.3531L21.4621 37.4496L21.3396 37.5461L21.2776 37.5943C21.2615 37.6096 21.2186 37.6296 21.1895 37.6479L20.8088 37.8655L20.7621 37.893L20.7 37.9252L20.3255 38.1221L20.0758 38.2538L19.8008 38.3901L19.8843 38.4284C19.9104 38.4407 19.9487 38.4545 19.9387 38.4652L19.9448 38.5326C19.9517 38.5449 19.9326 38.5533 19.9188 38.5625L19.8759 38.5916L19.8338 38.6199C19.8307 38.6222 19.8238 38.6253 19.8253 38.6268L19.8606 38.626L19.931 38.6253L21.0608 38.61L22.1768 38.5977L22.729 38.5885L22.9534 38.5839ZM14.7342 42.7751C14.594 42.9467 14.4623 43.1083 14.3367 43.2615C14.3336 43.2622 14.3313 43.263 14.3275 43.2638C14.1582 43.3028 13.943 43.3725 13.7193 43.4836C13.7293 43.4767 13.7393 43.4698 13.7492 43.4621C14.257 43.0845 14.6905 42.7215 14.9961 42.4534C14.9065 42.5637 14.8192 42.6717 14.7342 42.7751ZM13.4061 44.4019C13.3157 44.4218 13.2253 44.4418 13.1365 44.464C12.9274 44.5115 12.7175 44.5513 12.5076 44.5972L12.1637 44.6685C12.0634 44.6892 11.9631 44.7014 11.8627 44.716C12.0021 44.6348 12.4755 44.3529 13.0637 43.9508C13.0078 44.0044 12.9565 44.0565 12.9128 44.1055C12.7665 44.2687 12.6907 44.3881 12.6907 44.3881C12.6907 44.3881 12.8178 44.3361 13.0116 44.2434C13.2046 44.1499 13.4658 44.019 13.7377 43.8581C13.8181 43.8099 13.8932 43.7624 13.966 43.7157C13.7423 43.9906 13.5531 44.2219 13.4061 44.4019ZM15.4358 47.9183L15.5783 47.9758L15.6602 48.0102L15.8203 48.0792C16.2431 48.2645 16.6199 48.4667 16.901 48.7118C17.0427 48.8367 17.1545 48.9654 17.2526 49.1139C17.3491 49.2625 17.4272 49.4272 17.4847 49.6011C17.5988 49.948 17.6271 50.3318 17.5643 50.6895C17.5007 51.0464 17.3414 51.3995 17.1101 51.7066C16.9945 51.8606 16.862 52.0046 16.7157 52.1325C16.6789 52.1654 16.6414 52.196 16.6023 52.2252L16.574 52.2481C16.564 52.2566 16.5602 52.2604 16.5288 52.2803L16.3771 52.3791C16.2806 52.4457 16.165 52.5085 16.0531 52.5721L15.7223 52.759C15.7697 53.0171 15.8027 53.2791 15.8662 53.5387C15.8571 53.5487 15.8456 53.5594 15.8325 53.5724C15.8096 53.5977 15.7789 53.6276 15.7422 53.659C15.7069 53.6919 15.6671 53.7287 15.6188 53.7654C15.602 53.7808 15.5821 53.7953 15.5622 53.8106C15.5545 53.7945 15.5469 53.7777 15.54 53.7631C15.4963 53.6751 15.4718 53.6253 15.4718 53.6253C15.4718 53.6253 15.4779 53.6804 15.4886 53.7777C15.4917 53.8022 15.4948 53.829 15.4994 53.8581C15.4404 53.901 15.3753 53.9447 15.3071 53.9891C15.3063 53.9883 15.3056 53.9868 15.3056 53.9853C15.2711 53.8941 15.2527 53.8436 15.2527 53.8436C15.2527 53.8436 15.2527 53.8979 15.2535 53.9952C15.2535 54.0036 15.2543 54.0136 15.2543 54.022C15.1662 54.0756 15.0689 54.13 14.9678 54.1844C14.9525 54.0864 14.941 54.0006 14.9349 53.9316C14.9226 53.8091 14.9165 53.7402 14.9165 53.7402C14.9165 53.7402 14.9012 53.8076 14.8813 53.9316C14.8682 54.0128 14.8567 54.1208 14.8506 54.2472C14.8476 54.2487 14.8445 54.2503 14.8422 54.2518C14.6959 54.3269 14.555 54.3966 14.4232 54.4601C14.4186 54.4303 14.4148 54.3996 14.4117 54.3705C14.4079 54.3161 14.4048 54.2641 14.4018 54.215C14.3903 54.1147 14.3941 54.0243 14.3926 53.9447C14.3895 53.8627 14.3926 53.7938 14.3972 53.7363C14.4018 53.6199 14.4048 53.5556 14.4048 53.5556C14.4048 53.5556 14.3834 53.6176 14.3443 53.7271C14.3351 53.7555 14.3252 53.7869 14.3129 53.8206C14.3045 53.8551 14.2953 53.8926 14.2854 53.9332C14.267 54.0136 14.2425 54.1063 14.2317 54.2112C14.2249 54.2633 14.2172 54.3177 14.2095 54.3751C14.2072 54.4326 14.2042 54.4923 14.2011 54.5536C14.2011 54.5582 14.2011 54.5628 14.2011 54.5674C14.1322 54.6011 14.0686 54.6317 14.0112 54.6608C13.9208 54.7052 13.8473 54.7428 13.7898 54.7734C13.7806 54.6715 13.7737 54.5735 13.7722 54.4824C13.7653 54.215 13.7791 53.9937 13.7959 53.8413C13.8143 53.6881 13.825 53.6023 13.825 53.6023C13.825 53.6023 13.8174 53.623 13.8028 53.6613C13.7898 53.7003 13.7653 53.757 13.7438 53.8321C13.6941 53.9807 13.6382 54.202 13.6022 54.4808C13.5654 54.7604 13.5593 55.0982 13.6067 55.4673C13.6336 55.6512 13.6726 55.8434 13.7293 56.0372C13.737 56.0625 13.7469 56.0877 13.7553 56.113C13.642 56.1521 13.5271 56.1911 13.4107 56.2302C13.2965 55.6389 13.2766 55.0729 13.2552 54.6532C13.2414 54.4287 13.2437 54.2495 13.2805 54.1239C13.2973 54.0619 13.318 54.0144 13.3348 53.983C13.3532 53.9516 13.3632 53.9355 13.3632 53.9355C13.3632 53.9355 13.3486 53.9477 13.3234 53.9745C13.2981 54.0013 13.2644 54.0442 13.2307 54.1055C13.161 54.2265 13.1135 54.4234 13.0851 54.6493C13.0269 55.0767 12.9641 55.6803 13.0867 56.3367C12.3031 56.5879 11.5985 56.7847 11.0692 56.9195C10.7705 56.9977 10.5277 57.0551 10.36 57.0957C10.193 57.1348 10.1003 57.1562 10.1003 57.1562C10.1003 57.1562 10.1968 57.1532 10.3722 57.147C10.5476 57.1371 10.8027 57.121 11.1152 57.0835C11.6575 57.0214 12.3797 56.8958 13.1633 56.6622C13.2399 56.9211 13.3448 57.1593 13.4681 57.3615C13.6267 57.6227 13.8113 57.8295 13.9859 57.9765C14.159 58.1259 14.3198 58.2163 14.4332 58.2699C14.4883 58.2975 14.5351 58.3135 14.5642 58.3266C14.5956 58.3388 14.6109 58.3442 14.6109 58.3442C14.6109 58.3442 14.5971 58.3335 14.5703 58.3135C14.545 58.2921 14.5052 58.2645 14.4577 58.2232C14.362 58.1427 14.2317 58.0202 14.0985 57.8494C13.858 57.5522 13.6236 57.1018 13.4834 56.5619C13.4995 56.5573 13.5156 56.5519 13.5317 56.5473C13.6473 56.5082 13.7607 56.4676 13.8733 56.4263C13.9009 56.4906 13.9261 56.555 13.9575 56.6185C14.3405 57.3906 14.941 57.9061 15.4052 58.1764C15.638 58.3143 15.8379 58.4009 15.9781 58.4529C16.1175 58.5043 16.1964 58.5272 16.1964 58.5272C16.1964 58.5272 16.1259 58.4828 15.9972 58.4032C15.8708 58.3235 15.6939 58.1994 15.4917 58.0301C15.0865 57.6962 14.5971 57.1555 14.2532 56.4508C14.2295 56.4025 14.2095 56.3543 14.1873 56.306C14.3168 56.2547 14.4416 56.2011 14.5642 56.1475C14.6507 56.3129 14.7472 56.4661 14.8453 56.6009C14.928 56.7089 15.0092 56.8093 15.095 56.8935C15.1746 56.9831 15.2612 57.0551 15.337 57.121C15.4113 57.1899 15.4902 57.2382 15.5537 57.2857C15.6173 57.3339 15.6771 57.3676 15.7261 57.3944C15.8226 57.4488 15.8762 57.4787 15.8762 57.4787C15.8762 57.4787 15.8333 57.4327 15.756 57.3508C15.7161 57.3109 15.6686 57.2619 15.6188 57.1999C15.5691 57.1386 15.507 57.0758 15.4503 56.9946C15.3914 56.9165 15.3263 56.8338 15.265 56.7365C15.1991 56.6438 15.1394 56.5381 15.075 56.4294C15.003 56.2991 14.931 56.159 14.8629 56.0104C14.9663 55.9606 15.0658 55.91 15.1616 55.8595C15.2045 55.9529 15.2512 56.0456 15.3056 56.1383C15.6526 56.7319 16.1382 57.1286 16.5104 57.3439C16.6973 57.4542 16.8566 57.5246 16.9677 57.5675C17.0795 57.6104 17.1415 57.6303 17.1415 57.6303C17.1415 57.6303 17.0871 57.5905 16.9899 57.5193C16.8926 57.448 16.757 57.3408 16.6008 57.1999C16.5824 57.1846 16.5632 57.1654 16.5449 57.1486C16.5518 57.1478 16.5579 57.1478 16.5655 57.1478C16.79 57.1378 17.1025 57.0835 17.4127 56.9295C17.7221 56.7748 17.9572 56.5565 18.1028 56.3811C18.1939 56.4623 18.2828 56.5435 18.3662 56.6247C18.5263 56.7786 18.6703 56.9349 18.7921 57.0919C18.7783 57.1003 18.7653 57.108 18.7515 57.1164C18.5401 57.2451 18.2598 57.409 17.9718 57.6012C17.6838 57.7935 17.4318 57.9834 17.2411 58.1274C17.1446 58.201 17.0665 58.2615 17.0128 58.3021C16.9585 58.3449 16.9278 58.371 16.9278 58.371C16.9278 58.371 16.9707 58.3855 17.0473 58.4024C17.0917 58.4131 17.1492 58.4223 17.2143 58.43C17.1997 58.4951 17.1798 58.5839 17.1614 58.6927C17.1614 58.695 17.1607 58.698 17.1607 58.7003C17.0274 58.767 16.8903 58.8344 16.7501 58.9018C16.744 58.9048 16.7371 58.9079 16.7302 58.911C16.7065 58.757 16.6858 58.6613 16.6858 58.6613C16.6858 58.6613 16.6391 58.7792 16.5885 58.9784C16.4706 59.0335 16.3541 59.0864 16.2408 59.1369C16.2362 59.117 16.2316 59.0963 16.2278 59.0779C16.1726 58.8558 16.1221 58.7157 16.1221 58.7157C16.1221 58.7157 16.0876 58.8566 16.0577 59.0841C16.0516 59.127 16.0462 59.1744 16.0416 59.2235C16.0079 59.2373 15.9765 59.2503 15.9444 59.2641C15.8923 59.0925 15.8494 58.9883 15.8494 58.9883C15.8494 58.9883 15.8226 59.1178 15.7996 59.3238C15.6924 59.3675 15.5897 59.4073 15.4909 59.4448C15.4856 59.418 15.481 59.3912 15.4764 59.3659C15.4626 59.2932 15.4496 59.2296 15.4381 59.1752C15.5499 59.1316 15.6104 59.1078 15.6104 59.1078C15.6104 59.1078 15.5469 59.1201 15.4304 59.1423C15.4082 59.0419 15.3929 58.983 15.3929 58.983C15.3929 58.983 15.373 59.0473 15.3477 59.1584C15.2635 59.1744 15.1616 59.1936 15.0398 59.2173C14.9487 59.2357 14.8476 59.2564 14.7365 59.2794C14.6913 59.2878 14.6431 59.2955 14.594 59.3024C14.5841 59.2771 14.5787 59.2618 14.5787 59.2618C14.5787 59.2618 14.5757 59.2786 14.5711 59.3062C14.5075 59.3161 14.4416 59.3261 14.3727 59.3376C14.1107 59.3751 13.8181 59.4364 13.4873 59.467C13.3234 59.4869 13.1518 59.5076 12.9726 59.5291C12.7941 59.5536 12.6057 59.5597 12.4127 59.5773C12.2189 59.5896 12.0205 59.6164 11.8137 59.621C11.6077 59.6294 11.3955 59.6378 11.178 59.647C10.3086 59.6646 9.35353 59.6516 8.35169 59.5658C7.45172 59.4854 6.59388 59.3598 5.80191 59.2135C5.80114 59.2127 5.80114 59.2104 5.80114 59.2104C5.80114 59.2104 5.80037 59.2127 5.80037 59.2135C5.71153 59.1967 5.62268 59.1806 5.53536 59.1637C5.10721 59.0642 4.69437 58.9876 4.316 58.878C4.12605 58.8267 3.93993 58.7831 3.763 58.7325C3.71704 58.718 3.67262 58.7049 3.62666 58.6911C3.60981 58.6191 3.59756 58.5778 3.59756 58.5778C3.59756 58.5778 3.5876 58.6123 3.57151 58.6735C3.46428 58.6406 3.35935 58.6084 3.25825 58.5778C2.93196 58.4866 2.64703 58.3763 2.39121 58.289C2.2633 58.2446 2.14458 58.2032 2.03506 58.165C1.92706 58.1228 1.82825 58.0838 1.74017 58.0485C1.38172 57.9091 1.18334 57.8318 1.18334 57.8318C1.18334 57.8318 1.36716 57.9444 1.69881 58.1458C1.7823 58.1964 1.87498 58.2515 1.97684 58.312C2.02663 58.3388 2.07871 58.3656 2.13233 58.394C2.12007 58.4545 2.10093 58.5426 2.07948 58.6544C2.03965 58.865 1.98833 59.1515 1.94851 59.464C1.90944 59.7772 1.89029 60.0599 1.87881 60.2659C1.87574 60.3356 1.87344 60.3953 1.87191 60.4459C1.74247 60.3915 1.61303 60.3356 1.48588 60.2782C1.48895 60.269 1.49278 60.2613 1.49584 60.2521C1.57703 60.0277 1.66205 59.7091 1.67966 59.3475C1.69728 58.9853 1.64366 58.6551 1.58469 58.42C1.52495 58.1841 1.4629 58.0416 1.4629 58.0416C1.4629 58.0416 1.44069 58.1918 1.41465 58.4284C1.38938 58.6659 1.35797 58.9883 1.34036 59.3399C1.32427 59.6754 1.32274 59.9779 1.32657 60.2046L1.03781 60.0698C0.927519 59.9771 0.830246 59.6685 0.818757 59.3529C0.809566 59.1921 0.812629 59.0236 0.817225 58.8474C0.822586 58.6697 0.827948 58.4966 0.839437 58.3273C0.863181 57.9896 0.913732 57.6717 1.03169 57.3845C1.1504 57.0942 1.33116 56.8215 1.54946 56.5665C1.88264 56.1728 2.29164 55.822 2.68993 55.439C2.70295 55.4604 2.7175 55.4857 2.73512 55.5141C2.80328 55.6251 2.91664 55.7775 3.08208 55.9438C3.24753 56.1115 3.46965 56.2831 3.73772 56.4355C4.00656 56.5864 4.3206 56.7135 4.65914 56.7924C5.33775 56.9494 5.9459 56.9127 6.36946 56.8675C6.79532 56.82 7.05114 56.7595 7.05114 56.7595C7.05114 56.7595 6.79149 56.6499 6.37406 56.5289C5.95662 56.4056 5.39366 56.27 4.80007 56.1299C4.20953 55.9912 3.67568 55.8396 3.28123 55.6688C3.08515 55.5853 2.922 55.5033 2.81171 55.4398C2.78184 55.4229 2.75656 55.4084 2.73435 55.3953C2.84005 55.2919 2.94575 55.187 3.04838 55.0775C3.29731 54.8109 3.53245 54.5245 3.72776 54.2036C3.77372 54.1216 3.82197 54.0404 3.8618 53.9539C3.88325 53.9117 3.90852 53.8581 3.92767 53.806C3.94759 53.7547 3.97133 53.7042 3.98741 53.6521L4.0349 53.4951C4.04869 53.4445 4.05711 53.394 4.0686 53.3434C4.18196 53.4162 4.31064 53.4866 4.4531 53.5487C4.65301 53.6383 4.87819 53.7157 5.11793 53.7854C5.35843 53.8528 5.60736 53.9179 5.87544 53.9799C6.40929 54.1063 6.99982 54.2196 7.62329 54.2978C8.87023 54.4571 10.0015 54.4249 10.8042 54.3391C11.2063 54.2939 11.5265 54.2419 11.7463 54.199C11.9661 54.153 12.0864 54.1277 12.0864 54.1277C12.0864 54.1277 11.5878 54.0795 10.7789 54.0006C9.977 53.9171 8.88784 53.7777 7.67691 53.6214C7.06799 53.5479 6.48741 53.4782 5.95662 53.4139C5.42124 53.3495 4.94177 53.3128 4.5542 53.2247C4.38953 53.1895 4.24094 53.1435 4.10843 53.093C4.10996 53.0822 4.10537 53.0738 4.09924 53.0669L4.07933 53.0409C3.97822 52.988 3.88018 52.9313 3.78291 52.8739C3.73236 52.8463 3.68947 52.8142 3.64275 52.785L3.57381 52.7391C3.55083 52.7245 3.53781 52.7131 3.51943 52.7C3.38156 52.6005 3.25365 52.4863 3.13264 52.3669C2.89213 52.1256 2.68763 51.8468 2.53521 51.5412C2.22501 50.933 2.15071 50.2108 2.33224 49.5452C2.42109 49.2135 2.57197 48.8964 2.78184 48.6245C2.98864 48.3495 3.26284 48.1267 3.56002 47.9436C3.86027 47.7598 4.1812 47.6165 4.51897 47.4833L4.79777 47.373C4.83454 47.3561 4.8736 47.3423 4.91036 47.3247C5.01759 47.4618 5.16695 47.6257 5.36533 47.7935C5.30405 47.8088 5.22822 47.8318 5.13861 47.8647C4.91802 47.9451 4.62314 48.0991 4.36042 48.3404C4.09694 48.5809 3.92537 48.8543 3.82887 49.058C3.77985 49.1614 3.74768 49.2457 3.7293 49.3062C3.71091 49.3659 3.70019 49.3989 3.70019 49.3989C3.70019 49.3989 3.72776 49.3744 3.77602 49.3307C3.82274 49.2878 3.89014 49.225 3.9721 49.1484C4.13371 49.0021 4.35353 48.803 4.59556 48.5839C4.83454 48.3672 5.05206 48.1619 5.22286 48.0118C5.30329 47.9405 5.37069 47.8808 5.42047 47.8379C5.48558 47.8915 5.55374 47.9451 5.62804 47.9972C5.6403 48.0056 5.65255 48.0133 5.6648 48.0217C5.55757 48.0478 5.42966 48.1282 5.31248 48.2408C5.05589 48.4698 4.7365 48.8413 4.5251 49.3207C4.31217 49.7987 4.24324 50.2682 4.24324 50.5991C4.24017 50.7653 4.25243 50.8986 4.26392 50.9889C4.27694 51.0793 4.28383 51.1291 4.28383 51.1291C4.28383 51.1291 4.29532 51.0786 4.31677 50.9874C4.33745 50.897 4.36808 50.7676 4.41251 50.6113C4.49753 50.2981 4.64305 49.8852 4.8399 49.4479C5.03521 49.009 5.25733 48.6268 5.44115 48.3511C5.5277 48.2117 5.61579 48.1129 5.70234 48.0654C5.70846 48.0623 5.71306 48.0608 5.71919 48.0577C5.79808 48.1113 5.88233 48.1619 5.97118 48.2132C5.83408 48.3258 5.70157 48.4859 5.61579 48.6843C5.48558 48.9807 5.46949 49.261 5.46873 49.454C5.46949 49.6493 5.48558 49.768 5.48558 49.768C5.48558 49.768 5.55374 49.657 5.63647 49.4785C5.71995 49.2993 5.81952 49.0588 5.92829 48.816C6.01024 48.6314 6.09985 48.4644 6.19177 48.3296C6.44605 48.456 6.72945 48.5701 7.03582 48.6636C7.59495 48.8328 8.22225 48.9362 8.87636 48.9707C10.1907 49.0442 11.3549 48.8045 12.1469 48.5479C12.5452 48.4208 12.8538 48.2875 13.0652 48.1948C13.2751 48.0968 13.3877 48.0393 13.3877 48.0393C13.3877 48.0393 13.2598 48.0593 13.0269 48.096C12.7949 48.129 12.4617 48.1795 12.0527 48.2224C11.2324 48.3105 10.1118 48.3649 8.88095 48.2921C8.26361 48.2584 7.6792 48.2002 7.15454 48.1037C6.63064 48.0056 6.16572 47.867 5.79042 47.6985C5.45571 47.5507 5.19146 47.3822 5.00457 47.2405C5.00993 47.2305 5.01529 47.219 5.01836 47.206C5.03138 47.1118 5.03138 47.0122 5.03368 46.9142V46.6224C5.03444 46.2624 5.03521 45.9024 5.03521 45.5424L5.03827 45.0361V44.9695C5.24507 45.3065 5.52923 45.5462 5.8471 45.704C6.20632 45.8855 6.61073 45.966 7.02204 45.992C7.85001 46.0441 8.69253 45.8603 9.39412 45.8365C10.1723 45.8044 10.9513 45.7729 11.7279 45.701C11.6927 45.8365 11.6536 46.038 11.6536 46.2608C11.6536 46.6599 11.7808 46.9732 11.7808 46.9732C11.7808 46.9732 11.9929 46.6545 11.9929 46.2555C11.9929 46.0272 11.9232 45.822 11.8635 45.6879C11.9945 45.6749 12.1254 45.6611 12.2564 45.645C12.2526 45.6642 12.248 45.6818 12.2457 45.701C12.2066 45.969 12.1668 46.3305 12.1576 46.7281C12.1392 47.5216 12.2518 48.1473 12.2518 48.1473C12.2518 48.1473 12.4785 47.5193 12.4969 46.7258C12.5069 46.329 12.4617 45.9644 12.415 45.7032C12.4104 45.6757 12.4073 45.6504 12.4042 45.6251C12.4923 45.6121 12.5804 45.5975 12.6685 45.5838C12.6677 45.5861 12.6677 45.5884 12.6677 45.5907C12.6141 45.8557 12.5613 46.2241 12.5528 46.6277C12.5436 47.0314 12.5819 47.3914 12.6225 47.6487C12.6631 47.9061 12.7037 48.0608 12.7037 48.0608C12.7037 48.0608 12.7474 47.8976 12.7918 47.638C12.8362 47.3776 12.8829 47.0206 12.8914 46.6254C12.9006 46.2294 12.8692 45.8656 12.837 45.5983C12.8347 45.5838 12.8339 45.5715 12.8316 45.5577C12.9113 45.5455 12.9909 45.534 13.0698 45.521C13.1449 45.5095 13.22 45.4941 13.2942 45.4773C13.2383 45.7239 13.1748 46.0617 13.1457 46.4347C13.0867 47.1876 13.1885 47.785 13.1885 47.785C13.1885 47.785 13.426 47.1968 13.485 46.4516C13.5156 46.0571 13.4903 45.6941 13.4605 45.439L13.789 45.3586C13.8848 45.3364 13.9798 45.3103 14.074 45.2828C14.0364 45.38 13.9208 45.704 13.8878 46.09C13.848 46.5511 13.9445 46.9241 13.9445 46.9241C13.9445 46.9241 14.1873 46.5733 14.2264 46.1123C14.2601 45.7163 14.1329 45.3685 14.0962 45.2774C14.3214 45.2123 14.5427 45.1349 14.761 45.0499L14.7403 45.1571L14.735 45.1809L14.7342 45.1839V45.1954L14.7327 45.2176L14.7304 45.2644L14.7204 45.4467L14.702 45.812C14.6905 46.0563 14.6791 46.3014 14.6683 46.545L14.6607 46.8238L14.6568 46.9946C14.6584 47.049 14.6469 47.1133 14.6653 47.1562L14.7403 47.4434L14.7595 47.5154L14.7648 47.5338L14.7733 47.5445L14.7909 47.5652L14.8606 47.6502C14.8859 47.6778 14.9012 47.7085 14.9356 47.7345L15.111 47.7958C15.2244 47.8302 15.3263 47.8777 15.4358 47.9183ZM17.2533 56.63C17.248 56.6323 17.2434 56.6346 17.238 56.6377C17.225 56.6323 17.2135 56.6277 17.199 56.6208C17.1132 56.5818 16.9968 56.5144 16.8742 56.4102C16.6314 56.2042 16.3534 55.8557 16.0792 55.4581C16.0493 55.4153 16.021 55.3724 15.9926 55.3295C16.024 55.305 16.0508 55.282 16.0792 55.259C16.1159 55.3103 16.1542 55.3616 16.1948 55.4122C16.5318 55.8319 16.9324 56.1115 17.2334 56.2693C17.3851 56.3474 17.5115 56.4018 17.6011 56.4324C17.6118 56.4355 17.6187 56.4378 17.6279 56.4408C17.5115 56.5013 17.3851 56.5649 17.2533 56.63ZM15.88 53.5916C15.9122 53.7134 15.9513 53.8359 16.0041 53.9562L16.0639 54.104C16.0861 54.1507 16.1098 54.1928 16.1228 54.2189C16.1542 54.2809 16.1872 54.3399 16.2224 54.3958C16.2898 54.5122 16.3633 54.6187 16.4392 54.7221C16.4629 54.7543 16.4867 54.7857 16.5112 54.8171C16.5089 54.8178 16.5081 54.8194 16.5066 54.8209C16.4698 54.8508 16.4139 54.8921 16.3419 54.9457C16.3266 54.9565 16.3082 54.9687 16.2913 54.981C16.201 54.8592 16.1136 54.7397 16.0347 54.6248C15.916 54.4433 15.8088 54.274 15.7291 54.1247C15.7031 54.0825 15.6817 54.0419 15.6617 54.0029C15.6939 53.9608 15.723 53.9186 15.746 53.8773C15.782 53.8237 15.8065 53.7693 15.8279 53.7233C15.8509 53.6781 15.8662 53.6368 15.8762 53.6023C15.8777 53.5977 15.8793 53.5946 15.88 53.5916ZM15.5568 54.1293C15.5614 54.1492 15.5652 54.1691 15.5721 54.1898C15.615 54.3621 15.6908 54.5597 15.7889 54.7726C15.8525 54.8998 15.9275 55.0308 16.0133 55.1602C15.9827 55.1786 15.9528 55.197 15.9199 55.2154C15.7223 54.9013 15.566 54.6003 15.4588 54.356C15.445 54.3246 15.4312 54.2947 15.4189 54.2656C15.432 54.2541 15.4465 54.2426 15.4588 54.2311C15.4932 54.1967 15.5254 54.163 15.5568 54.1293ZM15.0344 54.5329C15.1256 54.4831 15.2114 54.428 15.2903 54.369C15.2926 54.3813 15.2941 54.3935 15.2964 54.4065C15.3408 54.6754 15.4435 55.0231 15.6303 55.3708C15.5453 55.4137 15.4549 55.4574 15.3592 55.5003C15.2022 55.1533 15.098 54.8171 15.0344 54.5329ZM14.7265 55.6879C14.6247 55.4153 14.5488 55.1472 14.4929 54.8975C14.4845 54.8469 14.4745 54.7979 14.4654 54.7489C14.5871 54.7183 14.7173 54.6769 14.8506 54.621C14.8675 54.9143 14.9295 55.2667 15.0643 55.6282C14.964 55.6688 14.8606 55.7109 14.7526 55.7523C14.7442 55.7308 14.735 55.7094 14.7265 55.6879ZM14.2026 54.801C14.2049 54.8492 14.208 54.8983 14.2103 54.948C14.2386 55.2245 14.303 55.5248 14.4156 55.8227C14.4217 55.8396 14.4294 55.8549 14.4363 55.8718C14.3152 55.9162 14.1927 55.9606 14.0648 56.0058C13.9147 55.5945 13.8327 55.1924 13.7959 54.84C13.8649 54.8377 13.9575 54.8316 14.0701 54.8194C14.1115 54.8148 14.1567 54.8086 14.2026 54.801ZM16.4208 57.0298C16.1466 56.7579 15.8456 56.3941 15.5905 55.9537C15.5407 55.8679 15.4955 55.7821 15.4526 55.6964C15.5476 55.6404 15.6372 55.583 15.7207 55.5271C15.7475 55.5715 15.7751 55.6159 15.8057 55.6596C15.9559 55.8779 16.1259 56.0648 16.2944 56.2157C16.4621 56.3673 16.636 56.4853 16.7938 56.5596C16.9431 56.63 17.0757 56.6599 17.1706 56.6706C16.9171 56.7962 16.6873 56.9058 16.5135 56.9862C16.4798 57.0023 16.4499 57.0161 16.4208 57.0298ZM17.4196 55.7783C17.6103 55.9506 17.7941 56.1084 17.9695 56.2624C17.8806 56.3106 17.7803 56.3635 17.6685 56.4209C17.6547 56.4102 17.6401 56.3979 17.6233 56.3842C17.549 56.3252 17.4448 56.2348 17.3215 56.1237C17.0726 55.9001 16.7601 55.5761 16.4514 55.1908C16.4085 55.1372 16.3702 55.0844 16.3304 55.0323C16.3465 55.0162 16.3641 54.9986 16.3787 54.984C16.4407 54.9189 16.4874 54.8669 16.5173 54.8309C16.5181 54.8293 16.5188 54.8293 16.5196 54.8278C16.8007 55.1924 17.1109 55.4972 17.4196 55.7783ZM19.2639 58.3227C19.2838 58.4935 19.2961 58.6766 19.3083 58.8681C19.3145 58.9631 19.3214 59.0519 19.3283 59.1362C19.2869 59.1622 19.2317 59.1959 19.1643 59.2373C19.1575 59.1178 19.1467 58.9937 19.1299 58.865C19.0801 58.4882 18.9905 58.1489 18.9139 57.9022C18.9131 57.8992 18.9124 57.8961 18.9108 57.8923C19.0196 57.8042 19.0946 57.7399 19.1345 57.7054C19.1506 57.7513 19.1659 57.7988 19.1789 57.8486C19.2172 57.9934 19.2448 58.1512 19.2639 58.3227ZM19.3482 59.6463C19.3451 59.6754 19.3428 59.7052 19.3382 59.7267C19.3367 59.7535 19.3283 59.7703 19.3306 59.7726C19.3275 59.7834 19.3244 59.7949 19.3168 59.8033C19.3114 59.8063 19.3106 59.814 19.3053 59.8163C19.3045 59.8186 19.2923 59.8255 19.244 59.8554L19.1659 59.9051C19.1666 59.8845 19.1674 59.8638 19.1682 59.8416C19.1758 59.6907 19.1774 59.5061 19.1682 59.3016C19.1743 59.2962 19.182 59.2893 19.1881 59.284C19.2463 59.2334 19.293 59.1921 19.3306 59.1599C19.339 59.2579 19.3459 59.3491 19.3482 59.431C19.3528 59.513 19.3512 59.5827 19.3482 59.6463ZM18.7707 60.1502C18.7638 60.1548 18.7561 60.1594 18.7484 60.164C18.7684 60.0392 18.7913 59.8416 18.7959 59.5988C18.8335 59.5697 18.8702 59.5421 18.9039 59.5153C18.9047 59.5153 18.9047 59.5153 18.9055 59.5153C18.9491 59.7022 18.9966 59.8623 19.0364 59.9848L18.7707 60.1502ZM18.2881 60.429L18.272 60.4382C18.2766 60.3869 18.2812 60.3272 18.2843 60.259C18.2889 60.1702 18.292 60.0683 18.2912 59.9572C18.3685 59.9044 18.4428 59.8531 18.5141 59.8048C18.5325 59.7926 18.5501 59.7795 18.5669 59.7673C18.6136 59.9588 18.6588 60.1081 18.6887 60.2008C18.6366 60.2337 18.5861 60.2659 18.5332 60.2973L18.2881 60.429ZM17.2916 60.9307C16.9577 61.0977 16.6054 61.2195 16.2607 61.3596C15.5583 61.6063 14.843 61.8284 14.1077 61.9693C13.9514 62.0061 13.7944 62.0344 13.6366 62.0605C13.6673 61.9395 13.7086 61.7457 13.7354 61.5052C13.7753 61.5021 13.8128 61.5006 13.8534 61.4968C13.9552 61.4899 14.0602 61.4791 14.1674 61.4654C14.2134 61.6676 14.254 61.7916 14.254 61.7916C14.254 61.7916 14.3007 61.6568 14.3413 61.4424C14.3987 61.4339 14.4562 61.4271 14.5167 61.4186C14.5435 61.414 14.5718 61.4079 14.5986 61.4033C14.6408 61.6407 14.6813 61.7878 14.6813 61.7878C14.6813 61.7878 14.7357 61.627 14.7809 61.3704C14.856 61.3566 14.931 61.3413 15.0076 61.3252C15.0498 61.5565 15.0934 61.699 15.0934 61.699C15.0934 61.699 15.1455 61.5381 15.1922 61.2861C15.2757 61.2662 15.3615 61.2448 15.4465 61.2225C15.5116 61.4163 15.5668 61.5289 15.5668 61.5289C15.5668 61.5289 15.5836 61.3941 15.5966 61.1843C15.7039 61.1551 15.8119 61.1222 15.9206 61.087C15.9696 61.2754 16.0118 61.388 16.0118 61.388C16.0118 61.388 16.0485 61.2524 16.0799 61.0357C16.1221 61.0211 16.1627 61.0066 16.2048 60.9912C16.237 61.0985 16.2599 61.1605 16.2599 61.1605C16.2599 61.1605 16.2783 61.0847 16.3005 60.9575C16.417 60.9139 16.5318 60.8695 16.6437 60.8243C16.6957 60.9843 16.7386 61.0763 16.7386 61.0763C16.7386 61.0763 16.7593 60.9568 16.78 60.7676C16.9454 60.6971 17.1025 60.6236 17.2549 60.5493C17.3162 60.7661 17.3698 60.8947 17.3698 60.8947C17.3698 60.8947 17.3973 60.7446 17.4196 60.5095C17.4203 60.4957 17.4219 60.4811 17.4226 60.4666C17.4264 60.4643 17.4303 60.4635 17.4333 60.4612C17.5467 60.3999 17.657 60.3402 17.7627 60.2812C17.8217 60.4589 17.8745 60.5845 17.899 60.6397L17.7972 60.6948C17.6302 60.776 17.4601 60.8518 17.2916 60.9307ZM12.1584 62.2527C12.1752 62.2037 12.2097 62.1049 12.2434 61.9693C12.2756 61.8407 12.307 61.679 12.3269 61.4998C12.3613 61.5029 12.3989 61.5059 12.4418 61.5098C12.5398 61.5174 12.6601 61.5259 12.7995 61.5266C12.8324 61.5274 12.8661 61.5282 12.9013 61.5297C12.9143 61.6385 12.9281 61.7396 12.9419 61.8253C12.9733 62.0245 13.0017 62.1486 13.0017 62.1486C13.0017 62.1486 13.0583 62.0252 13.1112 61.8215C13.1334 61.7373 13.1541 61.64 13.1702 61.5312C13.2046 61.5312 13.2399 61.5305 13.2751 61.5282C13.3387 61.5266 13.4068 61.5243 13.4742 61.5213C13.5056 61.7633 13.5447 61.9555 13.57 62.072C13.3808 62.1026 13.1901 62.1302 13.0009 62.1623C12.7198 62.1907 12.4402 62.2282 12.1584 62.2527ZM13.4206 60.9093C13.4268 61.0579 13.4375 61.1988 13.4513 61.3298C13.3816 61.3413 13.3111 61.352 13.2452 61.3612C13.2261 61.365 13.2085 61.3673 13.1893 61.3696C13.1993 61.2585 13.2031 61.1398 13.1962 61.0157C13.1786 60.6987 13.0997 60.416 13.0231 60.2154C12.9795 60.0974 12.9366 60.0085 12.9098 59.9542C13.1028 59.912 13.2866 59.8676 13.462 59.824C13.4344 60.0675 13.4022 60.4673 13.4206 60.9093ZM14.0533 60.6856C14.0663 60.8771 14.0901 61.0548 14.1169 61.2103C13.9912 61.2356 13.871 61.2578 13.7553 61.2792C13.7622 61.1551 13.7645 61.0234 13.7592 60.8863C13.7408 60.4321 13.6412 60.0323 13.5692 59.7971C13.5738 59.7956 13.5784 59.7949 13.583 59.7933C13.6634 59.7734 13.7423 59.7535 13.8189 59.7343C13.8955 59.7137 13.969 59.6884 14.041 59.6669C14.0563 59.6623 14.0717 59.657 14.0878 59.6524C14.0632 59.8431 14.0242 60.2399 14.0533 60.6856ZM14.5205 59.7566C14.5151 59.7581 14.5082 59.7596 14.5037 59.7612C14.3757 59.7949 14.3053 59.8132 14.3053 59.8132C14.3053 59.8132 14.3803 59.8132 14.5151 59.8125C14.5151 59.8125 14.5159 59.8125 14.5167 59.8125C14.5014 60.0231 14.4922 60.2774 14.5037 60.5478C14.5121 60.753 14.5312 60.9453 14.5534 61.1138C14.496 61.1276 14.4385 61.1406 14.3819 61.1536C14.3972 61.0027 14.4033 60.8335 14.3918 60.655C14.362 60.1985 14.2226 59.8094 14.1498 59.6325C14.2517 59.6011 14.3505 59.5697 14.4439 59.5406C14.4784 59.5291 14.5105 59.5191 14.545 59.5084C14.5366 59.5796 14.5282 59.6631 14.5205 59.7566ZM14.9808 59.6218C14.8843 59.6524 14.797 59.68 14.7189 59.7022C14.6959 59.6149 14.6737 59.5375 14.6538 59.4732C14.7013 59.4586 14.748 59.4433 14.7916 59.4264C14.879 59.3927 14.9571 59.3629 15.0314 59.3345C15.0184 59.3973 14.9992 59.4954 14.9808 59.6218ZM14.8422 60.5256C14.8307 60.2552 14.7893 60.007 14.7426 59.8025C14.7495 59.8017 14.7549 59.8017 14.7618 59.801C14.8223 59.7956 14.8889 59.7895 14.9594 59.7826C14.9356 59.9856 14.9173 60.2322 14.9226 60.498C14.9257 60.6841 14.9402 60.8587 14.9594 61.0142C14.915 61.0257 14.8705 61.038 14.8261 61.0487C14.8422 60.8894 14.8499 60.7124 14.8422 60.5256ZM15.2581 60.2896C15.2742 60.5179 15.3117 60.727 15.3546 60.9062C15.3171 60.9169 15.2795 60.9277 15.2412 60.9384C15.2558 60.7975 15.2642 60.6435 15.2612 60.4827C15.2558 60.2108 15.2198 59.9572 15.1784 59.752C15.206 59.7474 15.2328 59.7435 15.2612 59.7389C15.2481 59.9067 15.2443 60.0943 15.2581 60.2896ZM15.7774 60.2154C15.7912 60.4137 15.8172 60.596 15.8471 60.7561C15.7674 60.7821 15.6885 60.8059 15.6097 60.8304C15.6127 60.6573 15.6104 60.4627 15.5959 60.2575C15.5821 60.0514 15.5576 59.8577 15.5308 59.6846C15.6097 59.6669 15.6908 59.6463 15.7743 59.6241C15.7651 59.8002 15.7636 60.0024 15.7774 60.2154ZM16.1175 60.655C16.1182 60.6581 16.119 60.6611 16.1198 60.6642C16.119 60.6642 16.1182 60.665 16.1175 60.665C16.1175 60.6619 16.1175 60.6581 16.1175 60.655ZM16.4828 59.8914C16.4882 60.1196 16.5196 60.3295 16.5579 60.5064C16.4889 60.5324 16.4185 60.5577 16.348 60.5838C16.3649 60.3953 16.3748 60.174 16.361 59.9373C16.3511 59.7657 16.3304 59.6026 16.3051 59.4548C16.3733 59.4287 16.443 59.4027 16.5119 59.3744C16.4912 59.5321 16.4782 59.7068 16.4828 59.8914ZM17.1048 59.6286C17.1155 59.86 17.1476 60.0744 17.1844 60.2567C17.0626 60.308 16.9378 60.3586 16.8099 60.4091C16.8198 60.2468 16.826 60.0675 16.8221 59.8745C16.8168 59.6516 16.7976 59.4433 16.7769 59.2618C16.8229 59.2403 16.8689 59.2212 16.914 59.1997C16.9822 59.1668 17.0473 59.1331 17.1124 59.0994C17.0994 59.2618 17.0948 59.441 17.1048 59.6286ZM17.5076 58.8796C17.5145 59.058 17.5306 59.2579 17.5635 59.467C17.5957 59.6746 17.6401 59.8653 17.6861 60.0315C17.6072 60.0683 17.5268 60.1058 17.4433 60.1434C17.4502 59.9787 17.4525 59.7956 17.4425 59.6034C17.4318 59.3682 17.405 59.1484 17.3759 58.9569C17.4203 58.9316 17.464 58.9056 17.5076 58.8796ZM17.5053 58.5272C17.4441 58.5586 17.3813 58.5908 17.3177 58.6222C17.3031 58.5487 17.2893 58.4859 17.2779 58.4361C17.3077 58.4376 17.3384 58.4392 17.3713 58.4399C17.4134 58.4415 17.4601 58.4399 17.5084 58.4376C17.5076 58.4652 17.5069 58.4951 17.5053 58.5272ZM17.6432 58.4568C17.6394 58.446 17.6355 58.4361 17.6317 58.4254C17.6662 58.4208 17.7022 58.4154 17.7389 58.4085C17.7068 58.4246 17.6754 58.4407 17.6432 58.4568ZM18.2598 59.4119C18.2215 59.0864 18.1487 58.7915 18.0867 58.5747C18.0813 58.5563 18.076 58.5395 18.0714 58.5219C18.1786 58.4483 18.2797 58.3771 18.3731 58.3089C18.3785 58.5196 18.3946 58.7677 18.4283 59.0289C18.4559 59.2388 18.4919 59.4341 18.5302 59.6049C18.4934 59.6256 18.4551 59.6463 18.4153 59.6662C18.3747 59.6892 18.3295 59.7121 18.2866 59.7351C18.2812 59.6317 18.2736 59.5237 18.2598 59.4119ZM17.945 59.9082C17.9389 59.7535 17.9251 59.5835 17.8975 59.4065C17.8592 59.1591 17.7995 58.9309 17.7397 58.7386C17.7995 58.7019 17.8577 58.6643 17.9136 58.6276C17.8944 58.8489 17.8868 59.1438 17.9243 59.4601C17.9419 59.611 17.9687 59.752 17.9986 59.8814C17.981 59.8906 17.9634 59.8998 17.945 59.9082ZM18.1181 60.2958C18.1449 60.3693 18.1694 60.4321 18.1893 60.4827L17.9189 60.629C17.9258 60.5692 17.9389 60.452 17.945 60.2935C17.9465 60.2552 17.9473 60.2146 17.948 60.1725C17.9726 60.1571 17.9978 60.1426 18.0216 60.1273C18.0338 60.1196 18.0453 60.1127 18.0576 60.1051C18.0783 60.1748 18.0989 60.2383 18.1181 60.2958ZM18.7944 58.9194C18.8174 59.0933 18.8473 59.2572 18.8802 59.4065C18.8664 59.415 18.8526 59.4226 18.8388 59.4303C18.825 59.4387 18.8105 59.4464 18.7967 59.4548C18.7952 59.3054 18.786 59.1446 18.7638 58.9768C18.7232 58.6643 18.6466 58.3809 18.5723 58.1596C18.6336 58.1121 18.6902 58.0684 18.7431 58.0271C18.7408 58.2729 18.75 58.5854 18.7944 58.9194ZM18.7469 57.8877C18.6987 57.9122 18.6466 57.939 18.5914 57.9673C18.6504 57.9091 18.7033 57.8479 18.7507 57.7858C18.7492 57.8172 18.7484 57.8509 18.7469 57.8877ZM19.0249 57.4511C19.0671 57.5315 19.1015 57.6112 19.1306 57.6947C19.087 57.7161 19.0043 57.7575 18.8871 57.8165C18.8687 57.7598 18.8511 57.7092 18.8358 57.6663C18.8993 57.5675 18.9484 57.4703 18.9851 57.3799C18.9989 57.4036 19.0127 57.4274 19.0249 57.4511ZM15.2834 59.5206C15.2336 59.5383 15.1853 59.5551 15.1386 59.5704C15.111 59.4601 15.0858 59.3736 15.0697 59.32C15.0727 59.3184 15.0758 59.3177 15.0789 59.3161C15.1784 59.2771 15.2627 59.2441 15.3355 59.2158C15.3263 59.2602 15.3163 59.3093 15.3063 59.3644C15.2979 59.4119 15.2903 59.4655 15.2834 59.5206ZM11.4966 62.2918C11.5403 62.0766 11.5809 61.7916 11.5793 61.4799C11.5747 60.8097 11.3771 60.2506 11.3771 60.2506C11.3771 60.2506 11.2347 60.8128 11.24 61.4906C11.2416 61.807 11.2753 62.0888 11.3105 62.3017C11.1696 62.3063 11.0279 62.3079 10.8869 62.3094C10.9344 62.0781 10.9796 61.761 10.9727 61.4094C10.962 60.9032 10.8456 60.4643 10.7789 60.2521C10.9444 60.2406 11.1067 60.2276 11.2653 60.2131C11.4866 60.1855 11.7026 60.1602 11.9117 60.1342C12.1201 60.1074 12.3207 60.0637 12.5153 60.0308C12.6378 60.0108 12.7558 59.9871 12.8715 59.9626C12.8669 60.0223 12.8607 60.1165 12.8554 60.2376C12.8462 60.4474 12.8408 60.7331 12.8577 61.0418C12.8646 61.1712 12.8753 61.293 12.8875 61.4087C12.8523 61.4125 12.8178 61.4163 12.7841 61.4209C12.6486 61.4393 12.5321 61.4485 12.4356 61.4562C12.3973 61.46 12.3629 61.4638 12.3315 61.4661C12.3399 61.3834 12.3453 61.2984 12.3468 61.2103C12.3514 60.9123 12.3085 60.6404 12.2648 60.4398C12.2219 60.2399 12.1768 60.1127 12.1768 60.1127C12.1768 60.1127 12.0159 60.6075 12.0075 61.2126C12.0006 61.7265 12.1048 62.1401 12.1362 62.2543C12.0511 62.2612 11.9661 62.2665 11.8796 62.2703C11.7524 62.2795 11.6245 62.2849 11.4966 62.2918ZM10.6334 61.4255C10.6411 61.774 10.6778 62.085 10.7138 62.3117C10.4917 62.3117 10.2688 62.3063 10.0467 62.2987C10.1003 62.1317 10.2175 61.7059 10.206 61.2042C10.1968 60.835 10.121 60.5049 10.0567 60.2889C10.2788 60.282 10.4971 60.2713 10.7108 60.2575C10.6778 60.4742 10.6227 60.9208 10.6334 61.4255ZM9.08622 62.2458C9.13218 62.1218 9.26851 61.7143 9.27158 61.231C9.27387 60.8304 9.18503 60.4727 9.12911 60.2896C9.39872 60.2981 9.66297 60.2981 9.92262 60.2927C9.89198 60.5133 9.85828 60.8495 9.8667 61.221C9.87819 61.7181 9.96245 62.1309 10.0015 62.2964C9.87436 62.2918 9.74722 62.288 9.62084 62.2811C9.44238 62.2719 9.26392 62.2604 9.08622 62.2458ZM8.38616 61.9892C8.45739 61.7794 8.53092 61.483 8.54394 61.149C8.55696 60.8151 8.50718 60.5095 8.45356 60.2912C8.44973 60.2766 8.4459 60.2644 8.44284 60.2514C8.64811 60.2674 8.85108 60.2797 9.05099 60.2866C9.00656 60.4689 8.93457 60.8273 8.93227 61.2363C8.9292 61.7227 9.02495 62.1202 9.05865 62.2443C8.81202 62.2244 8.56615 62.1976 8.32029 62.1677C8.3402 62.1179 8.36242 62.0589 8.38616 61.9892ZM7.22041 62.0076C7.25028 61.954 7.28935 61.879 7.32994 61.7832C7.41419 61.5856 7.50227 61.2984 7.51453 60.9706C7.52755 60.6427 7.46398 60.3456 7.39428 60.1372C7.39428 60.1349 7.39351 60.1334 7.39351 60.1319C7.68763 60.1755 7.98711 60.2115 8.29195 60.2391C8.25902 60.462 8.21919 60.7875 8.20387 61.1437C8.18702 61.5756 8.21229 61.951 8.23068 62.157C7.94192 62.1202 7.65316 62.0804 7.36517 62.0329C7.31692 62.0245 7.26867 62.0161 7.22041 62.0076ZM6.3595 61.5427C6.37329 61.6959 6.38784 61.8062 6.39397 61.8514C6.15653 61.8024 5.91986 61.751 5.68319 61.6944C5.68931 61.6806 5.92139 61.149 5.95356 60.4719C5.96352 60.2475 5.95126 60.0361 5.92982 59.8523C6.06998 59.8852 6.21245 59.9174 6.35721 59.9473C6.34036 60.1587 6.32197 60.4382 6.32197 60.7423C6.32197 61.0563 6.34112 61.3382 6.3595 61.5427ZM7.1645 61.9977C6.91174 61.954 6.65898 61.9058 6.40699 61.8537C6.42767 61.8123 6.47746 61.7059 6.52878 61.5496C6.59541 61.3459 6.66128 61.0579 6.66128 60.7339C6.66128 60.449 6.6092 60.187 6.55099 59.9871C6.77311 60.0315 6.99906 60.0721 7.2296 60.1081C7.22807 60.1234 7.2273 60.138 7.22654 60.1533C7.21045 60.3662 7.18824 60.6535 7.17522 60.9644C7.1622 61.2769 7.16144 61.5565 7.16144 61.7625C7.16144 61.8598 7.16297 61.9395 7.1645 61.9977ZM4.81003 61.4676C4.83683 61.4102 4.87283 61.3267 4.91036 61.2233C4.98619 61.0142 5.06814 60.7201 5.09189 60.3869C5.1118 60.0943 5.08499 59.8224 5.0467 59.6103C5.17614 59.6486 5.30711 59.6884 5.43962 59.7297C5.51928 59.7512 5.60123 59.7719 5.68319 59.7926C5.65332 59.9879 5.62574 60.2184 5.61425 60.4643C5.58132 61.1406 5.67936 61.679 5.68242 61.6944C5.5009 61.6507 5.31937 61.6055 5.13938 61.558C5.02908 61.5289 4.91955 61.4975 4.81003 61.4676ZM2.9986 60.8886C2.82779 60.8266 2.65776 60.763 2.48925 60.6971C2.51912 60.655 2.56891 60.5792 2.62253 60.4765C2.70831 60.3096 2.80099 60.066 2.82779 59.7841C2.8546 59.5023 2.80941 59.2419 2.7558 59.058C2.70218 58.8734 2.64321 58.7631 2.64321 58.7631C2.64321 58.7631 2.61793 58.8796 2.58576 59.0611C2.55512 59.2434 2.51529 59.49 2.48925 59.7589C2.46398 60.0277 2.45632 60.2705 2.45479 60.4482C2.45402 60.5531 2.45479 60.6351 2.45632 60.6841C2.28934 60.6198 2.1239 60.5524 1.95923 60.4842C1.9554 60.4827 1.95157 60.4811 1.94774 60.4788C1.97684 60.4306 2.01055 60.3701 2.04578 60.2973C2.14075 60.1028 2.24645 59.8224 2.28705 59.4984C2.32688 59.1737 2.29394 58.8719 2.24952 58.6567C2.2296 58.5609 2.20816 58.4828 2.19054 58.4246C2.2319 58.446 2.27249 58.4683 2.31615 58.4905C2.56125 58.6176 2.83775 58.767 3.15715 58.9018C3.26361 58.9485 3.3739 58.9975 3.4865 59.0473C3.4436 59.2556 3.39918 59.5191 3.37084 59.8025C3.30497 60.4719 3.35859 61.0127 3.35859 61.0127C3.35859 61.0127 3.64275 60.5056 3.70938 59.827C3.73389 59.5758 3.7247 59.3384 3.70325 59.14C3.82351 59.1852 3.94682 59.2319 4.0732 59.2794C4.04716 59.4869 4.01882 59.7504 4.00197 60.0361C3.98205 60.3547 3.98052 60.642 3.98282 60.8518C3.98512 61.0609 3.99354 61.1919 3.99354 61.1919C3.99354 61.1919 4.0686 61.0747 4.15132 60.871C4.23404 60.6688 4.3206 60.3785 4.34051 60.0476C4.35583 59.7926 4.32902 59.5544 4.28919 59.3598C4.47072 59.4295 4.6599 59.4923 4.85675 59.5521C4.81768 59.7688 4.77479 60.0576 4.75258 60.3716C4.71811 60.8541 4.74186 61.2677 4.75641 61.4523C4.16205 61.2861 3.57534 61.0985 2.9986 60.8886ZM5.7705 44.5735C5.83944 44.5528 5.90837 44.536 5.9773 44.5161C5.96352 44.5444 5.95203 44.5727 5.94207 44.5995C5.94054 44.5995 5.93901 44.5995 5.93748 44.5995C5.84939 44.5972 5.76974 44.5965 5.69927 44.5957L5.7705 44.5735ZM10.6924 44.716C10.7207 44.7121 10.7376 44.7091 10.7376 44.7091C10.7376 44.7091 10.7261 44.706 10.7077 44.7006C10.733 44.6738 10.7598 44.6463 10.7843 44.6164C10.9176 44.4555 11.0049 44.2786 11.0616 44.14C11.0631 44.1369 11.0646 44.1346 11.0654 44.1316C11.1067 44.1346 11.1512 44.1346 11.1964 44.1316C11.1581 44.1691 11.119 44.2089 11.0815 44.251C10.8172 44.5498 10.7062 44.8684 10.7062 44.8684C10.7062 44.8684 11.0753 44.7696 11.3388 44.4716C11.4476 44.3491 11.5204 44.2112 11.5694 44.0917C11.6038 44.0963 11.6375 44.0994 11.672 44.1032C11.708 44.1093 11.7425 44.1132 11.7762 44.1162C11.7034 44.1683 11.626 44.2311 11.5533 44.3093C11.3618 44.5145 11.2753 44.7451 11.2553 44.8063C11.2094 44.8125 11.1642 44.8194 11.119 44.8255C10.9068 44.8485 10.6939 44.8722 10.4817 44.899C10.5499 44.8485 10.6227 44.788 10.6924 44.716ZM9.97087 44.7772C10.0789 44.7749 10.18 44.7703 10.2681 44.7642C10.2749 44.7635 10.2811 44.7627 10.288 44.7627C10.2673 44.8033 10.2489 44.8431 10.2336 44.8783C10.2267 44.896 10.2198 44.912 10.2137 44.9281C10.0597 44.9442 9.905 44.9588 9.75028 44.9771C9.82152 44.9212 9.89658 44.8538 9.97087 44.7772ZM7.85307 45.0821C8.09434 45.092 8.31186 45.0905 8.49033 45.0844C8.81814 45.0721 9.01729 45.0468 9.01729 45.0468C9.01729 45.0468 8.9652 45.0315 8.87176 45.0062C8.91465 44.9879 8.97363 44.9595 9.04103 44.9205C9.11609 44.8776 9.20188 44.8201 9.28843 44.7497C9.39566 44.7604 9.50059 44.768 9.60093 44.7726C9.5611 44.8416 9.5251 44.9067 9.49599 44.9641C9.4891 44.9794 9.48297 44.9925 9.47608 45.0062C8.89014 45.0698 8.30574 45.1372 7.72133 45.1441C7.75427 45.1303 7.79946 45.1104 7.85307 45.0821ZM7.41802 45.053C7.52066 45.0629 7.62023 45.0698 7.71674 45.0752C7.69835 45.1058 7.68457 45.1296 7.67461 45.1449C7.57121 45.1456 7.46704 45.1449 7.36364 45.1411C7.33837 45.1403 7.31386 45.138 7.28935 45.1372C7.32534 45.115 7.36824 45.0867 7.41802 45.053ZM6.9914 45.0009C7.06033 45.0108 7.1308 45.0208 7.20203 45.0292C7.22271 45.0323 7.24262 45.0338 7.2633 45.0361C7.24339 45.0752 7.22807 45.1081 7.21658 45.1334C7.0925 45.1265 6.96919 45.1165 6.84664 45.1051C6.8834 45.0798 6.93395 45.0445 6.9914 45.0009ZM6.51499 44.9151C6.61609 44.9366 6.72179 44.9572 6.83132 44.9756C6.8114 45.0277 6.79762 45.0698 6.78919 45.0997C6.78613 45.0997 6.78306 45.0989 6.78 45.0982C6.6429 45.0836 6.50733 45.0591 6.37099 45.0323C6.41695 44.9978 6.4652 44.9588 6.51499 44.9151ZM7.17139 44.3514C7.09097 44.4571 7.02663 44.5643 6.97302 44.6639C6.90638 44.657 6.84051 44.6509 6.77617 44.6455C6.78919 44.6286 6.80298 44.6118 6.816 44.5949C6.89949 44.4846 6.96765 44.3705 7.02204 44.2618C7.10935 44.2441 7.19667 44.2273 7.28475 44.2127C7.24569 44.2556 7.20816 44.3024 7.17139 44.3514ZM8.46735 44.0473C8.39918 44.1254 8.32871 44.212 8.25595 44.3024C8.21995 44.2993 8.18472 44.2978 8.15025 44.2955C8.20004 44.2173 8.24216 44.1415 8.27969 44.068C8.3425 44.0611 8.40454 44.0542 8.46735 44.0473ZM9.75411 44.1285C9.86747 44.1354 9.97623 44.1369 10.0796 44.1346C10.0023 44.2166 9.92109 44.3085 9.84373 44.4088C9.82152 44.4379 9.80237 44.4663 9.78169 44.4946C9.71199 44.4824 9.63999 44.4686 9.56569 44.4563C9.64612 44.346 9.70816 44.2342 9.75411 44.1285ZM9.14903 44.392C9.14826 44.392 9.1475 44.392 9.14673 44.392C9.21873 44.2878 9.27694 44.1836 9.32289 44.0864C9.36042 44.0917 9.39872 44.0963 9.43855 44.1017C9.37727 44.1653 9.3137 44.2357 9.25243 44.31C9.22868 44.3399 9.20647 44.3682 9.18503 44.3973C9.17277 44.395 9.16052 44.3935 9.14903 44.392ZM8.91312 44.0105C8.94912 44.019 8.98665 44.0274 9.02571 44.0343C8.95371 44.1078 8.87942 44.189 8.80819 44.2794C8.79057 44.3016 8.77295 44.323 8.75687 44.3453C8.71474 44.3414 8.67262 44.3368 8.63202 44.333C8.6933 44.2242 8.74079 44.1185 8.77525 44.022C8.82121 44.0182 8.86716 44.0136 8.91312 44.0105ZM8.4505 44.598C8.48879 44.608 8.52786 44.6172 8.56769 44.6263C8.50411 44.732 8.45586 44.8263 8.42139 44.8983C8.35169 44.8829 8.2774 44.8676 8.19851 44.8515C8.28429 44.7811 8.37007 44.6953 8.4505 44.598ZM7.60185 44.3093C7.62789 44.32 7.65929 44.333 7.69606 44.3483C7.59648 44.4778 7.5107 44.6049 7.44023 44.7198C7.39964 44.7144 7.35905 44.7091 7.31769 44.7037C7.36134 44.6555 7.40424 44.6049 7.44636 44.5498C7.5061 44.4693 7.55742 44.3881 7.60185 44.3093ZM7.76269 44.7696C7.84158 44.6937 7.922 44.6087 7.99783 44.513C8.00856 44.4992 8.01851 44.4854 8.02847 44.4724C8.05375 44.4808 8.07902 44.4892 8.10583 44.4977C8.02694 44.6034 7.95724 44.7045 7.8975 44.7933C7.85307 44.7857 7.80865 44.778 7.76269 44.7696ZM8.57075 44.932C8.66266 44.8745 8.77295 44.7949 8.88402 44.6922C8.91312 44.6976 8.94299 44.7029 8.97286 44.7075C8.8955 44.8347 8.84342 44.9366 8.81585 44.9925C8.74921 44.9748 8.66572 44.9542 8.57075 44.932ZM10.5193 44.405C10.4603 44.4762 10.412 44.5475 10.3699 44.6172C10.3378 44.6103 10.3041 44.6018 10.2688 44.5949C10.2305 44.5865 10.1899 44.5773 10.147 44.5681C10.2589 44.415 10.3401 44.2572 10.3975 44.1193C10.4726 44.1132 10.5423 44.1063 10.6051 44.0986C10.6602 44.0917 10.7092 44.0848 10.7529 44.0779C10.7774 44.0848 10.805 44.0925 10.8356 44.1002C10.7345 44.1783 10.6211 44.2809 10.5193 44.405ZM7.88984 44.1155C7.84465 44.166 7.79946 44.2189 7.75427 44.274C7.70371 44.2725 7.66082 44.271 7.62406 44.2702C7.64704 44.2281 7.66772 44.1875 7.68686 44.1469C7.75427 44.1369 7.82167 44.1247 7.88984 44.1155ZM6.37099 44.513C6.40087 44.4724 6.42537 44.431 6.44912 44.3897C6.48895 44.3797 6.52878 44.3698 6.56937 44.3606C6.55941 44.3721 6.55099 44.3835 6.5418 44.3958C6.48435 44.4709 6.43303 44.5459 6.38708 44.6179C6.35261 44.6164 6.31891 44.6149 6.28598 44.6133C6.31508 44.5819 6.34419 44.549 6.37099 44.513ZM6.047 44.8155C6.05083 44.8132 6.05466 44.8102 6.05849 44.8071C6.11824 44.8232 6.18181 44.8385 6.24691 44.8546C6.22011 44.9044 6.19636 44.9503 6.17568 44.9917C6.08147 44.968 5.9865 44.9419 5.89305 44.912C5.92369 44.8952 5.98037 44.863 6.047 44.8155ZM5.52923 44.6486C5.61579 44.6784 5.73987 44.7175 5.89305 44.7612C5.87773 44.8278 5.87161 44.8783 5.86854 44.9044C5.69621 44.8492 5.52464 44.7849 5.3592 44.706C5.41205 44.6876 5.4649 44.6708 5.51621 44.6524L5.52923 44.6486ZM11.8168 44.7229C11.6758 44.7428 11.5357 44.765 11.3955 44.7857C11.5119 44.7481 11.6766 44.6738 11.8045 44.536C11.8306 44.5092 11.8535 44.4793 11.8742 44.4502C11.8765 44.4487 11.8788 44.4471 11.8819 44.4456C11.8872 44.4425 11.8941 44.4379 11.9003 44.4341C11.898 44.4586 11.898 44.4739 11.898 44.4739C11.898 44.4739 11.9577 44.4594 12.0412 44.4257C12.0887 44.4065 12.1431 44.3812 12.199 44.3491C12.0082 44.5375 11.8834 44.6715 11.839 44.7198C11.8313 44.7213 11.8244 44.7221 11.8168 44.7229ZM12.8293 43.7677C12.7259 43.8566 12.6294 43.9439 12.539 44.0259C12.5406 44.0236 12.5429 44.0213 12.5436 44.019C12.5536 44.0044 12.562 43.9914 12.5689 43.9791C12.5804 43.9699 12.5911 43.9623 12.6026 43.9539C12.6754 43.8964 12.7512 43.8344 12.8293 43.7677ZM13.6121 43.0271C13.8411 42.7912 14.0832 42.5292 14.3382 42.2489C14.352 42.2405 14.3658 42.232 14.3803 42.2221C14.6576 42.0459 15.0344 41.8031 15.4366 41.5282C15.6977 41.3482 15.9367 41.1774 16.142 41.0272C15.8318 41.4148 15.5384 41.7817 15.2635 42.1233C14.9318 42.2926 14.2532 42.664 13.5332 43.2002C13.2851 43.3855 13.056 43.5724 12.8508 43.7494C13.0851 43.5479 13.3402 43.3059 13.6121 43.0271ZM24.1184 28.1136C24.1077 27.8379 24.0181 27.5959 23.9307 27.4335C23.8901 27.3561 23.8503 27.2956 23.8197 27.2527C23.8136 26.7204 23.8036 26.172 23.8051 25.6527C23.8067 25.3096 23.8158 24.9725 23.8235 24.6332L23.8411 24.0733C23.8473 23.8888 23.8541 23.7034 23.8603 23.518C23.8787 23.5586 23.8978 23.6015 23.9185 23.649C24.0418 23.9293 24.198 24.3169 24.3535 24.7412C24.5098 25.1663 24.6369 25.5508 24.725 25.8327C24.8108 26.1168 24.8636 26.2915 24.8636 26.2915C24.8636 26.2915 24.869 26.244 24.8782 26.1582C24.8866 26.0732 24.8927 25.9483 24.8897 25.7952C24.8843 25.488 24.8322 25.0591 24.6683 24.6133C24.5037 24.1676 24.2624 23.8022 24.0632 23.5602C23.9889 23.4698 23.9223 23.3955 23.8672 23.3381C23.8702 23.2446 23.8733 23.1519 23.8764 23.0585L23.881 22.9421H23.8802V22.9405L23.8787 22.9421H23.8779L23.8947 22.9237L23.9384 22.8754L24.1138 22.6839C24.7204 22.0161 25.3102 21.329 25.8854 20.6274C25.8808 20.6604 25.8754 20.6994 25.8685 20.7469C25.854 20.8878 25.8364 21.0939 25.8379 21.3489C25.8371 21.6047 25.854 21.9088 25.8816 22.2428C25.9099 22.5767 25.9467 22.9405 25.9689 23.3197C25.9926 23.6988 25.9873 24.055 25.9536 24.3843C25.9206 24.7137 25.8685 25.0131 25.8218 25.2659C25.7728 25.5194 25.7337 25.7255 25.7062 25.8687C25.697 25.9215 25.6886 25.9667 25.6824 26.0012C25.5537 26.1988 25.4212 26.4033 25.2857 26.6109C25.2941 26.5818 25.3033 26.5519 25.3109 26.519C25.3339 26.4355 25.3592 26.3405 25.3768 26.234C25.4212 26.0219 25.4412 25.7653 25.4473 25.4811C25.448 25.1977 25.4212 24.8875 25.3676 24.5704C25.2558 23.9355 25.0605 23.3986 24.9119 23.0194C24.7618 22.6403 24.6538 22.4159 24.6538 22.4159C24.6538 22.4159 24.6829 22.6709 24.7526 23.0769C24.8253 23.4782 24.9249 24.0305 25.036 24.644C25.0873 24.948 25.131 25.2383 25.1624 25.5056C25.1861 25.7722 25.2091 26.0157 25.2075 26.2233C25.2121 26.3275 25.206 26.4209 25.2045 26.5044C25.2045 26.5879 25.2007 26.6607 25.1953 26.7196C25.1938 26.7334 25.1938 26.7426 25.1922 26.7556C25.1708 26.7878 25.1509 26.82 25.1294 26.8529C25.0658 26.9487 25 27.0475 24.9356 27.1455C24.9104 26.9954 24.8736 26.8315 24.82 26.6637C24.7151 26.339 24.5695 26.0686 24.45 25.884C24.3306 25.6994 24.2409 25.5975 24.2409 25.5975C24.2409 25.5975 24.2563 25.7415 24.2976 25.9583C24.3382 26.1758 24.4003 26.4661 24.4991 26.7756C24.5779 27.0206 24.6683 27.2428 24.7488 27.4266C24.5404 27.7437 24.3252 28.07 24.1015 28.4039C24.1153 28.3128 24.1222 28.2155 24.1184 28.1136ZM26.2684 25.0905C26.2607 25.1028 26.2523 25.1165 26.2446 25.1288C26.2461 25.1242 26.2477 25.1204 26.2507 25.1158C26.2745 25.0629 26.3013 25.004 26.3304 24.9396C26.3557 24.8737 26.3825 24.8017 26.4124 24.7252C26.4231 24.696 26.4346 24.6654 26.4468 24.6348C26.4269 24.6915 26.407 24.7474 26.3871 24.7987C26.3526 24.8944 26.3204 24.9802 26.2913 25.0553C26.2837 25.0675 26.276 25.079 26.2684 25.0905ZM27.3981 23.7072C27.5559 23.4078 27.6961 23.1381 27.8194 22.8961C27.948 22.7942 28.102 22.6885 28.2805 22.5805C28.6412 22.36 29.0954 22.1432 29.6109 21.9203C30.1241 21.6982 30.7008 21.4554 31.2722 21.1467C32.4211 20.5378 33.3548 19.84 33.9859 19.3001C34.2057 19.1132 34.3872 18.9462 34.5343 18.8076C34.6545 18.7478 34.7227 18.7095 34.7227 18.7095C34.7227 18.7095 34.6882 18.7126 34.6293 18.718C34.6568 18.6911 34.6867 18.6628 34.7112 18.6391C34.7679 18.5824 34.8146 18.5357 34.8529 18.4966C34.8705 18.4958 34.8882 18.4951 34.9042 18.4935L35.0329 18.4828C34.9946 18.5717 34.9563 18.6613 34.918 18.7501C34.8828 18.803 34.8376 18.8681 34.7794 18.9447C34.6224 19.1584 34.3834 19.4586 34.0548 19.7971C33.7262 20.1349 33.3057 20.5079 32.8071 20.8809C32.3085 21.254 31.7302 21.6239 31.1022 21.9869C29.8445 22.7092 28.6466 23.3051 27.8171 23.8152C27.5061 24.0059 27.2526 24.1905 27.0611 24.3483C27.1791 24.1231 27.2924 23.9087 27.3981 23.7072ZM26.7953 19.4915C26.9202 19.3307 27.042 19.1683 27.1653 19.0067C27.1438 19.1185 27.1224 19.2334 27.1025 19.3514C27.0144 19.8745 26.937 20.4528 26.8681 21.0609C26.7976 21.6683 26.7333 22.2474 26.6651 22.7743C26.6245 23.0355 26.5954 23.2867 26.5518 23.5196C26.5318 23.636 26.5127 23.7494 26.4943 23.8574C26.4721 23.9653 26.4507 24.0688 26.4307 24.1676C26.394 24.3667 26.3457 24.5436 26.3074 24.6999C26.2883 24.7788 26.2707 24.8523 26.2538 24.9197C26.2339 24.9863 26.2155 25.0468 26.1994 25.102C26.1787 25.1732 26.1604 25.233 26.1458 25.2828C26.0202 25.4811 25.89 25.6833 25.7537 25.8932C25.7552 25.8894 25.756 25.8863 25.7575 25.8825C25.8149 25.7469 25.8976 25.5516 25.9873 25.3042C26.0769 25.0568 26.1726 24.7573 26.2393 24.4127C26.3074 24.0688 26.3327 23.6766 26.3059 23.2798C26.2821 22.8823 26.2216 22.5147 26.1627 22.1861C26.1037 21.8598 26.0501 21.5665 26.0056 21.3214C25.962 21.0778 25.9382 20.8794 25.9206 20.7423C25.9153 20.6826 25.9107 20.6366 25.9068 20.6014C26.2071 20.2353 26.5043 19.8661 26.7953 19.4915ZM30.4274 18.3495C30.4595 18.3227 30.4978 18.2929 30.5346 18.263C30.3868 18.3986 30.252 18.528 30.131 18.6475C30.1218 18.6567 30.1149 18.6643 30.1057 18.6728C30.1302 18.6322 30.1555 18.5908 30.1815 18.5471C30.2282 18.5096 30.314 18.4407 30.4274 18.3495ZM31.4009 12.5599C31.9255 11.6323 32.4188 10.6918 32.886 9.75196C32.8929 9.77877 32.9059 9.83085 32.9266 9.90744C32.9557 10.0208 32.9902 10.1855 33.017 10.3884C33.0744 10.7944 33.0737 11.3505 32.9994 11.9624C32.9281 12.553 32.8201 13.0975 32.7466 13.5104C32.6241 13.7425 32.5038 13.9699 32.3859 14.1944C32.4755 13.8773 32.5559 13.4752 32.5789 13.0363C32.608 12.5055 32.5467 12.0314 32.4778 11.6997C32.4425 11.5335 32.4088 11.401 32.3805 11.3106C32.3529 11.221 32.3376 11.1712 32.3376 11.1712C32.3376 11.1712 32.2939 12.0053 32.2396 13.0309C32.212 13.5387 32.1875 14.0052 32.163 14.3506C32.1553 14.4693 32.1484 14.5727 32.1423 14.6578C31.7049 15.4896 31.309 16.2463 30.9681 16.8966C30.5897 17.625 30.2818 18.2186 30.0636 18.6391C30.0796 18.59 30.0973 18.538 30.1149 18.4828C30.1884 18.2599 30.2573 17.9896 30.3201 17.6878C30.3791 17.386 30.4258 17.0513 30.448 16.699C30.4909 15.9951 30.4189 15.3662 30.3339 14.9243C30.3025 14.7634 30.2719 14.6263 30.2443 14.5168C30.3469 14.3498 30.4488 14.1821 30.5507 14.0136C30.5591 14.1124 30.5675 14.2296 30.5744 14.3659C30.589 14.5681 30.5936 14.8094 30.5974 15.0737C30.5959 15.3387 30.589 15.6274 30.5714 15.9284C30.5361 16.5297 30.4649 17.0651 30.3983 17.4511C30.3646 17.6441 30.3362 17.8004 30.3125 17.9068C30.2918 18.0148 30.2803 18.0738 30.2803 18.0738C30.2803 18.0738 30.3102 18.0194 30.3638 17.9206C30.4189 17.821 30.4886 17.674 30.5645 17.4856C30.7161 17.1103 30.8754 16.5611 30.9114 15.9323C30.9283 15.619 30.9137 15.318 30.8816 15.0468C30.8463 14.7757 30.7981 14.5337 30.7422 14.3353C30.6947 14.1614 30.648 14.022 30.6081 13.9179C30.8785 13.4667 31.145 13.0148 31.4009 12.5599ZM33.1786 10.3364C33.1081 10.1372 33.0323 9.9848 32.9741 9.8837C32.9327 9.8117 32.9029 9.76575 32.8891 9.7443C32.981 9.55971 33.0714 9.37436 33.161 9.18977C33.1656 9.21657 33.1702 9.24338 33.1755 9.27249C33.2322 9.6095 33.2943 10.0668 33.3448 10.573C33.3954 11.0801 33.426 11.5465 33.4352 11.895C33.4367 12.0115 33.439 12.1133 33.4405 12.1976C33.3678 12.3347 33.2958 12.4703 33.2253 12.6051C33.272 12.4097 33.3134 12.2029 33.3387 11.9854C33.4168 11.3321 33.3234 10.7339 33.1786 10.3364ZM35.0704 5.43364C35.3806 4.90974 35.7092 4.40193 36.0631 3.92399C36.0164 4.00671 35.9666 4.09709 35.9229 4.19896C35.8915 4.26942 35.8586 4.34295 35.8241 4.41955C35.7904 4.49614 35.7628 4.57886 35.7307 4.66311C35.664 4.83315 35.6112 5.0185 35.5537 5.21458C35.4473 5.60751 35.3569 6.04715 35.288 6.50977C35.2198 6.97316 35.1685 7.41434 35.1202 7.81569C35.1202 7.82028 35.1195 7.82411 35.1187 7.82871C35.1394 7.34847 35.1049 6.91878 35.0636 6.60934C35.0199 6.28842 34.9732 6.0954 34.9732 6.0954C34.9732 6.0954 34.9356 6.29838 34.8943 6.6216C34.8522 6.94559 34.8024 7.38753 34.7771 7.87849C34.7526 8.36945 34.7556 8.82059 34.7625 9.153C34.7679 9.42721 34.7794 9.61716 34.7832 9.67613C34.5772 10.0591 34.3673 10.4513 34.1552 10.8518C34.2448 10.5891 34.3267 10.2981 34.3857 9.98863C34.5083 9.33759 34.5021 8.74323 34.4608 8.3235C34.4401 8.11363 34.4156 7.94589 34.3918 7.831C34.3696 7.71611 34.3574 7.65331 34.3574 7.65331C34.3574 7.65331 34.3505 7.71918 34.3397 7.8379C34.3313 7.95585 34.3137 8.12665 34.2915 8.33499C34.2471 8.75319 34.1674 9.31997 34.0495 9.94191C33.9897 10.2529 33.9261 10.5485 33.8641 10.8197C33.7982 11.0893 33.7385 11.3351 33.6787 11.5404C33.6711 11.568 33.6642 11.5933 33.6565 11.6201C33.6711 11.5159 33.6833 11.4048 33.6925 11.2877C33.7079 11.0533 33.7079 10.7944 33.681 10.5263C33.6267 9.98863 33.4727 9.52754 33.3341 9.21351C33.3027 9.14151 33.272 9.07718 33.2437 9.0205C33.2583 8.99062 33.2728 8.96152 33.2866 8.93165C33.8679 7.72224 34.4286 6.53811 35.0704 5.43364ZM34.8039 9.63707C34.8062 9.62941 34.8093 9.62252 34.8116 9.61333C34.81 9.61945 34.8085 9.62558 34.807 9.63171C34.8062 9.63324 34.8047 9.63554 34.8039 9.63707ZM37.3315 2.4917L37.4954 2.33698L37.6677 2.19222C37.7826 2.09877 37.8975 1.99308 38.0124 1.91112C38.0461 1.88508 38.0806 1.8621 38.115 1.83836C38.0966 1.86516 38.079 1.89427 38.0599 1.92567C37.9029 2.17766 37.7037 2.53382 37.5299 2.94283C37.3568 3.35107 37.2426 3.73174 37.1729 4.00901C37.1032 4.28627 37.0764 4.46014 37.0764 4.46014C37.0764 4.46014 37.1852 4.31078 37.3338 4.06262C37.4839 3.81369 37.6754 3.46673 37.8462 3.06461C38.0177 2.6625 38.1365 2.27877 38.2154 1.99308C38.2437 1.88967 38.2659 1.79929 38.2835 1.72653C38.3088 1.71121 38.3341 1.6936 38.3586 1.67904C38.416 1.64534 38.4742 1.61777 38.5286 1.59173C38.5539 1.58024 38.5784 1.57258 38.6022 1.56415C38.5608 1.66296 38.5003 1.80849 38.4268 1.99001C38.3272 2.23664 38.2031 2.54991 38.0714 2.89687C38.0867 2.83943 38.0951 2.80726 38.0951 2.80726C38.0951 2.80726 38.0737 2.86777 38.0323 2.98342C37.9932 3.09908 37.9304 3.26835 37.8485 3.48511C37.6838 3.91863 37.428 4.5398 37.0734 5.29041C36.6712 6.14979 36.129 7.1746 35.5147 8.31737C35.6472 8.06615 35.8578 7.63263 36.0233 7.12328C36.289 6.31369 36.3404 5.63585 36.3404 5.63585C36.3404 5.63585 36.2446 5.78444 36.1167 6.03336C35.9896 6.28153 35.8287 6.62849 35.6977 7.02831C35.566 7.42889 35.4894 7.80726 35.4435 8.08836C35.3975 8.36945 35.3845 8.55098 35.3845 8.55098C35.3845 8.55098 35.4174 8.4966 35.471 8.39933C35.3255 8.66893 35.1761 8.9462 35.0245 9.22806C35.0613 9.13156 35.0996 9.02892 35.1333 8.9125C35.2344 8.61302 35.3209 8.24844 35.4067 7.84479C35.4863 7.44115 35.5583 6.99691 35.6273 6.53658C35.6954 6.07702 35.7636 5.64504 35.8371 5.25747C35.8777 5.06446 35.913 4.8814 35.9582 4.7129C35.9957 4.5421 36.0439 4.38814 36.0868 4.24645C36.1244 4.10322 36.178 3.98067 36.2155 3.86961C36.2523 3.75778 36.2936 3.66587 36.3281 3.59081C36.3312 3.58391 36.3342 3.57702 36.3373 3.56936C36.646 3.18333 36.9753 2.82028 37.3315 2.4917ZM39.9609 2.27877C39.941 2.07656 39.915 1.87282 39.8529 1.64994L39.8276 1.56262L39.7916 1.45922C39.7641 1.39182 39.735 1.32518 39.7013 1.26161C39.6331 1.13523 39.5435 1.02111 39.4355 0.930729C39.2218 0.74231 38.9238 0.674141 38.6443 0.7178C38.609 0.723161 38.5738 0.728523 38.5386 0.736182L38.4352 0.764521C38.3647 0.780606 38.3011 0.808945 38.2353 0.834221C38.1196 0.884007 38.03 0.931494 37.9358 0.985876C37.7527 1.09387 37.5888 1.21259 37.4318 1.33361L36.9868 1.70662C36.4093 2.21903 35.8977 2.79424 35.4419 3.40009C34.5297 4.61486 33.8335 5.94222 33.1801 7.26115C32.8584 7.92062 32.536 8.57932 32.2151 9.23725L31.7187 10.2115C31.5472 10.5332 31.381 10.8572 31.2048 11.1758C29.8108 13.7333 28.2268 16.182 26.4629 18.4974C25.5798 19.6547 24.6545 20.7806 23.6818 21.8667L23.3142 22.2719L23.115 22.4917L23.0629 22.5484C23.0492 22.5698 23.0185 22.5828 23.0254 22.6119L23.0193 22.7674L22.984 23.8803L22.9588 24.9197C22.9534 25.2414 22.948 25.5654 22.9542 25.8901C22.9534 25.8978 22.9565 25.9139 22.9534 25.9146L22.932 25.8978L22.8906 25.8633L22.8071 25.7936L22.6417 25.655L22.3077 25.3747L21.8803 25.0177L21.6567 24.8301C21.587 24.8914 21.5165 24.9634 21.4468 25.03L21.0355 25.4298L20.6633 25.8005C20.4159 26.0494 20.1723 26.3022 19.9341 26.5611C18.9821 27.5928 18.1074 28.7271 17.4992 30.0177C17.1875 30.6565 16.9393 31.3275 16.7371 32.0107C16.5349 32.6939 16.3748 33.3901 16.2515 34.0948C16.0087 35.5026 15.8885 36.9333 15.7981 38.3633C15.7353 39.3675 15.9727 39.6631 16.0769 38.8734C16.2477 37.5867 16.4154 36.2524 16.6705 34.9074C16.8367 34.0611 17.0358 33.2078 17.3047 32.373C17.2794 32.6418 17.2763 32.8831 17.2848 33.073C17.2962 33.361 17.3261 33.5349 17.3261 33.5349C17.3261 33.5349 17.3813 33.3587 17.454 33.0799C17.5268 32.7996 17.621 32.4189 17.7007 31.9938C17.7788 31.5825 17.8293 31.2019 17.8653 30.9123C18.151 30.2835 18.4804 29.6746 18.8764 29.0994C19.1942 28.6375 19.5481 28.1918 19.9287 27.7575C19.9272 27.7743 19.9257 27.7896 19.9249 27.8073C19.9058 28.1129 19.879 28.5303 19.8506 28.9853C19.8253 29.4387 19.8093 29.8454 19.797 30.1403C19.7855 30.4359 19.7825 30.619 19.7825 30.619C19.7825 30.619 19.8698 30.4482 19.9663 30.1594C20.0628 29.8707 20.1647 29.4586 20.1907 28.9914C20.216 28.5249 20.1593 28.0983 20.0942 27.7958C20.0796 27.7299 20.0658 27.6717 20.0528 27.6181C20.1126 27.5507 20.1715 27.4833 20.2328 27.4166C20.4802 27.1447 20.7399 26.879 21.0041 26.6132C21.1374 26.4814 21.2714 26.3497 21.4055 26.2172L21.5609 26.0678C21.6705 26.4048 21.8053 26.8567 21.9401 27.3515C22.0802 27.8632 22.1936 28.325 22.271 28.6605C22.3476 28.9975 22.3943 29.2051 22.3943 29.2051C22.3943 29.2051 22.4012 29.1507 22.4134 29.0519C22.4249 28.9531 22.4349 28.8099 22.4379 28.6314C22.4441 28.276 22.4096 27.7789 22.2641 27.2489C22.1201 26.7242 21.8972 26.2762 21.708 25.9683C21.9125 26.1406 22.1193 26.3145 22.3246 26.4883C22.4586 26.7985 22.634 27.2022 22.7918 27.6434C22.8753 27.88 22.9419 28.1067 22.9917 28.3135C23.0384 28.5219 23.0698 28.7111 23.0821 28.8719C23.0936 28.9523 23.0913 29.0251 23.0943 29.0902C23.0989 29.1545 23.0974 29.2097 23.0951 29.2549C23.0928 29.3468 23.092 29.3973 23.092 29.3973C23.092 29.3973 23.1135 29.3506 23.148 29.261C23.1663 29.2173 23.1863 29.1614 23.2023 29.0956C23.2192 29.0289 23.2422 28.9531 23.2514 28.8673C23.2828 28.6957 23.2897 28.4859 23.272 28.253C23.2491 28.0225 23.1962 27.7697 23.1074 27.5177C23.0269 27.2941 22.9274 27.0919 22.824 26.9104C23.1395 27.1761 23.4536 27.4411 23.7691 27.7077C23.7714 27.8379 23.7737 27.9811 23.7799 28.1335C23.7898 28.3871 23.8059 28.6146 23.8181 28.7831C23.8189 28.7961 23.8204 28.8068 23.8204 28.8191C23.812 28.8328 23.8028 28.8466 23.7936 28.8604C22.8439 30.2697 21.7838 31.8116 20.638 33.4154C19.8636 34.5007 19.1023 35.5447 18.3693 36.5328C18.3816 36.4876 18.3931 36.4416 18.4068 36.3926C18.4474 36.2379 18.4911 36.0625 18.5462 35.8702C18.7538 35.0989 19.0839 34.0496 19.3558 32.8731C19.4891 32.2841 19.5818 31.7173 19.6362 31.2003C19.6584 30.9407 19.6798 30.6948 19.6806 30.4635C19.6913 30.2345 19.6806 30.0193 19.6722 29.824C19.6699 29.6294 19.64 29.454 19.6254 29.3016C19.6117 29.1476 19.5864 29.0167 19.5649 28.911C19.522 28.6996 19.4998 28.5831 19.4998 28.5831C19.4998 28.5831 19.5037 28.7042 19.5121 28.9225C19.5151 28.9768 19.5182 29.0373 19.5213 29.1032C19.5228 29.1691 19.5197 29.2418 19.519 29.3184C19.5151 29.4732 19.5213 29.6478 19.5029 29.8416C19.496 29.9381 19.4899 30.0392 19.483 30.1449C19.4753 30.2498 19.4592 30.3586 19.4477 30.4719C19.4278 30.6979 19.3857 30.9376 19.3497 31.1911C19.2632 31.6951 19.1498 32.2474 19.0181 32.8279C18.7484 33.9891 18.5011 35.0591 18.3777 35.8472C18.3433 36.0433 18.3211 36.2225 18.2996 36.3796C18.2843 36.4891 18.2728 36.5871 18.2644 36.6744C18.1832 36.784 18.1028 36.892 18.0223 36.9992C18.0315 36.8475 18.0476 36.5672 18.0691 36.1965C18.0813 36.0089 18.0959 35.7967 18.1135 35.5684C18.1211 35.6221 18.1296 35.6726 18.1395 35.7193C18.1648 35.8426 18.1931 35.9399 18.2177 36.0073C18.2414 36.074 18.2567 36.11 18.2567 36.11C18.2567 36.11 18.2766 35.9575 18.3088 35.7163C18.3417 35.4765 18.3984 35.1556 18.4704 34.8094C18.5424 34.464 18.6167 34.1553 18.6772 33.9294C18.7385 33.7042 18.776 33.5648 18.776 33.5648C18.776 33.5648 18.7484 33.5908 18.7017 33.6414C18.6535 33.6919 18.5899 33.7677 18.5187 33.8688C18.4114 34.0213 18.2912 34.2357 18.2062 34.4923C18.2215 34.3315 18.2376 34.1668 18.2544 33.9991C18.3402 33.1519 18.4352 32.3967 18.5102 31.8514C18.5868 31.3068 18.6336 30.9729 18.6336 30.9729C18.6336 30.9729 18.6029 31.054 18.5478 31.2003C18.4934 31.3466 18.4214 31.5611 18.341 31.8299C18.1817 32.3668 18.0017 33.1259 17.9143 33.986C17.827 34.8462 17.85 35.6374 17.8998 36.2057C17.9243 36.4906 17.9526 36.7204 17.9772 36.8797C17.9856 36.9402 17.994 36.99 18.0001 37.0291C17.886 37.1823 17.7734 37.3339 17.6608 37.4833C17.6539 37.4228 17.6463 37.3584 17.6386 37.2864C17.5988 36.9379 17.5521 36.4615 17.5038 35.9437C17.4563 35.426 17.4165 34.9626 17.3889 34.6256C17.3613 34.2886 17.3445 34.081 17.3445 34.081C17.3445 34.081 17.2779 34.2863 17.2196 34.6302C17.1614 34.9725 17.1178 35.4559 17.1676 35.9882C17.2173 36.5213 17.3506 36.9946 17.4739 37.3263C17.5115 37.4289 17.5467 37.517 17.5789 37.5913C17.5 37.697 17.4196 37.8034 17.3414 37.9076C17.3123 37.9459 17.284 37.9834 17.2549 38.021C17.2036 37.8387 17.1185 37.5384 17.0243 37.2075C16.9439 36.941 16.8719 36.7028 16.8191 36.5289C16.7654 36.3543 16.7287 36.2432 16.7287 36.2432C16.7287 36.2432 16.6804 36.3596 16.6513 36.5542C16.6222 36.7472 16.6169 37.0222 16.7011 37.3094C16.7854 37.5966 16.9393 37.8295 17.0711 37.9788C17.1147 38.0309 17.1561 38.0715 17.1913 38.106C16.7295 38.7195 16.2776 39.2993 15.8578 39.85C15.3822 40.4505 14.9494 41.0203 14.5374 41.5282C14.1299 42.039 13.7661 42.5078 13.4321 42.9053C13.0989 43.3028 12.7926 43.6314 12.5222 43.8819C12.4992 43.8803 12.4739 43.8803 12.4441 43.8819C12.3736 43.8865 12.2886 43.9033 12.2082 43.9424C12.1714 43.9064 12.1009 43.8696 11.9914 43.839C11.8359 43.7976 11.6797 43.7547 11.5219 43.7118C11.3618 43.6797 11.2002 43.6467 11.0378 43.6146C10.9559 43.5985 10.8731 43.5824 10.7912 43.5663C10.7077 43.5556 10.6242 43.5441 10.5407 43.5326C10.373 43.5104 10.2037 43.4874 10.0321 43.469C9.3474 43.407 8.63585 43.4001 7.91052 43.4537C7.18518 43.5073 6.44759 43.6245 5.70616 43.8076C5.61272 43.8282 5.52081 43.8566 5.42737 43.8811L5.35767 43.9002L5.32243 43.9102L5.30482 43.9148L5.27724 43.924L5.05359 43.9975C4.90806 44.0412 4.74415 44.1063 4.58254 44.1683L4.33974 44.2633L4.27081 44.2909C4.27004 44.2932 4.27004 44.2962 4.27004 44.2985L4.26698 44.346L4.26009 44.4732C4.25013 44.6432 4.23941 44.8148 4.23941 44.994C4.23634 45.1349 4.23328 45.2751 4.23022 45.4153C4.22562 45.6014 4.22026 45.7883 4.21566 45.9759C4.21183 46.1628 4.20724 46.3505 4.20341 46.5389L4.20111 46.6798L4.20034 46.6974C4.20034 46.699 4.20034 46.6982 4.20034 46.6982L4.19881 46.7013C4.19728 46.7028 4.19575 46.7043 4.19422 46.7051C4.19115 46.7074 4.18503 46.7043 4.18349 46.7043C4.20417 46.6959 4.13141 46.7235 4.08928 46.7403L3.94605 46.7978C3.85031 46.8376 3.75381 46.879 3.65653 46.9241C3.26821 47.1026 2.86303 47.3324 2.49844 47.661C2.1308 47.9919 1.83055 48.4162 1.64596 48.8681C1.45371 49.32 1.3641 49.8048 1.3618 50.2896C1.3641 50.7729 1.46291 51.2677 1.65439 51.7066C1.84128 52.1493 2.11012 52.5453 2.42951 52.8846C2.58882 53.0562 2.76499 53.2094 2.94958 53.3495L3.01928 53.4016L3.03689 53.4154L3.04532 53.4215L3.07596 53.4369L3.11196 53.4499C3.12804 53.4637 3.11885 53.4905 3.11732 53.5142L3.11349 53.5334C3.11272 53.5395 3.11042 53.5449 3.09204 53.5847C3.0637 53.6475 3.02541 53.7118 2.98941 53.7754C2.83699 54.032 2.63172 54.2855 2.4027 54.5314C1.95233 55.0216 1.3664 55.4796 0.861649 56.0985C0.611189 56.4071 0.38141 56.7625 0.236649 57.1639C0.088824 57.5668 0.042868 57.9689 0.0214219 58.3373C0.0114649 58.5219 0.00686938 58.698 0.00303958 58.8742C-0.00155591 59.0527 -0.00232209 59.2403 0.0106989 59.4349C0.0237197 59.6294 0.0551229 59.8347 0.118695 60.043C0.153928 60.1479 0.188395 60.246 0.257329 60.3693C0.319369 60.4857 0.400558 60.5907 0.482513 60.6902L0.715356 60.8112L0.886159 60.8932C0.990325 60.9422 1.09526 60.9905 1.19942 61.0372C1.40776 61.1306 1.61609 61.2195 1.82289 61.3053C2.23879 61.4761 2.6501 61.6362 3.06064 61.7801C5.10108 62.5078 7.23496 62.9987 9.40944 63.1542C11.5793 63.312 13.7952 63.1205 15.8915 62.4764C16.9378 62.1539 17.9572 61.7334 18.9101 61.1919C19.0326 61.1314 19.1475 61.0563 19.2647 60.9859L19.6147 60.7714L19.7901 60.6642C19.8491 60.632 19.9349 60.5692 20.0023 60.5095C20.1378 60.38 20.2275 60.2085 20.2765 60.0285C20.3615 59.6922 20.3347 59.4012 20.3186 59.1277L20.3033 58.9271L20.2918 58.7302C20.2841 58.5954 20.2749 58.4583 20.2627 58.3189C20.2374 58.0416 20.1961 57.7552 20.1103 57.4703C20.0245 57.1838 19.8882 56.9119 19.7273 56.6691C19.3995 56.1827 18.9821 55.8021 18.5784 55.4444C18.1725 55.0882 17.7826 54.7458 17.454 54.3552C17.2909 54.1614 17.1461 53.9569 17.0335 53.7432C17.0044 53.6904 16.9914 53.6605 16.973 53.6184C16.9539 53.5793 16.9424 53.5372 16.9263 53.4974C16.9133 53.4552 16.9018 53.4139 16.8911 53.371L16.8803 53.3066C16.8788 53.2967 16.8742 53.2852 16.8757 53.2752L16.9041 53.2599C17.045 53.178 17.14 53.1159 17.3705 52.9214C17.5666 52.7513 17.7443 52.5614 17.9006 52.3546C18.2131 51.9425 18.4398 51.46 18.5386 50.9468C18.6359 50.4336 18.6029 49.9013 18.4482 49.4065C18.295 48.9133 18.0124 48.4537 17.6256 48.106C17.2388 47.7605 16.7823 47.53 16.3289 47.3462C16.1083 47.2566 15.8471 47.1639 15.6931 47.111C15.6503 47.0957 15.6564 47.0138 15.5936 47.0383L15.5208 47.039L15.4848 47.0398C15.4787 47.039 15.471 47.0413 15.468 47.0383L15.4672 47.0214L15.4603 46.738C15.4503 46.2693 15.4396 45.7998 15.4297 45.331L15.4212 44.9404L15.4151 44.7374L15.4113 44.6371L15.4098 44.5865L15.409 44.562C15.4082 44.5582 15.409 44.5536 15.4082 44.5498L15.396 44.5459C15.3393 44.5245 15.2834 44.5046 15.2267 44.4862C15.1938 44.4065 15.1417 44.343 15.0727 44.3299C14.8414 44.2847 14.6201 44.2694 14.4033 44.2763C14.3597 44.2771 14.3168 44.2801 14.2731 44.2832C14.1536 44.2756 14.0456 44.2763 13.9537 44.2824C13.8013 44.2939 13.6902 44.3207 13.6267 44.3613C13.606 44.3644 13.5853 44.3682 13.5639 44.3721C13.5677 44.3698 13.57 44.3667 13.5738 44.3636C13.7477 44.2043 13.9575 44.0075 14.1965 43.7746C14.437 43.5426 14.712 43.2806 15.0046 42.9811C15.4281 42.5614 15.8961 42.0727 16.3963 41.532C16.4116 41.5373 16.4269 41.5435 16.4453 41.5496C16.5449 41.5825 16.682 41.6155 16.862 41.6461C17.0404 41.676 17.2618 41.6867 17.5268 41.6997C19.2149 41.7357 20.9291 41.4454 22.5367 40.8319C24.1437 40.2161 25.6503 39.2909 26.9263 38.0891L30.062 35.1357L26.1136 36.9127C25.6227 37.1332 25.1409 37.3171 24.6637 37.4312C24.1858 37.54 23.6833 37.5821 23.1372 37.5943L22.9343 37.5989L22.7627 37.6012C22.7627 37.5997 22.7604 37.5997 22.7604 37.5989C22.7589 37.5974 22.7589 37.5966 22.7589 37.5959C22.7589 37.5943 22.7635 37.5928 22.7635 37.5928L22.7765 37.5775L22.9059 37.4327C23.076 37.242 23.2353 37.0674 23.3969 36.9218C23.4765 36.843 23.5593 36.7824 23.6404 36.715L23.7653 36.6285L23.8281 36.5848L23.8932 36.5488L24.0234 36.4738L24.1605 36.4125L24.2279 36.3811L24.3206 36.3443L24.5044 36.27L25.2412 35.969C25.7345 35.7615 26.2262 35.5424 26.7149 35.3042C27.202 35.0614 27.6853 34.8017 28.1556 34.5076C28.6244 34.2081 29.0839 33.8834 29.5128 33.5096C29.9387 33.1312 30.3385 32.7138 30.6863 32.2474C31.0271 31.784 31.3158 31.231 31.5326 30.7867C31.5946 30.6604 31.6598 30.5317 31.7264 30.3785C31.7938 30.2253 31.8528 30.0537 31.8934 29.909C31.9776 29.6179 32.0412 29.3629 32.1132 29.0933L32.523 27.4902C32.6593 26.964 32.801 26.4485 32.968 25.9453C33.0507 25.6941 33.1388 25.4451 33.2345 25.1993C33.2812 25.0759 33.3318 24.9542 33.3816 24.8324L33.5409 24.4532C34.3964 22.4228 35.2527 20.3915 36.1083 18.3603L36.5502 17.3132L35.4151 17.4925L35.3324 17.5047L35.2367 17.5177L35.0383 17.54L34.7817 17.5637C34.7288 17.5683 34.6745 17.5714 34.6178 17.5721C34.5603 17.5737 34.5021 17.5737 34.4416 17.5714C34.3842 17.5691 34.3106 17.5683 34.2616 17.5599C34.3719 17.4779 34.5006 17.399 34.6446 17.3171L34.699 17.2857L34.7273 17.2703L34.8476 17.2075L35.3469 16.9494L35.8494 16.6967L36.1236 16.5626L36.577 16.3474L36.8734 15.4773L37.0864 14.837L37.5038 13.5525C37.7772 12.6947 38.0415 11.8361 38.2973 10.9744C38.5524 10.1135 38.7998 9.25028 39.0364 8.38554C39.2731 7.52233 39.509 6.64917 39.6905 5.75303C39.8422 5.00089 39.9517 4.23189 39.9808 3.45447C39.9939 3.06538 39.9954 2.68471 39.9609 2.27877Z" fill="#C7AE8D"/>
</g>
</svg>
